<svg width="667" height="334" viewBox="0 0 667 334" fill="none" xmlns="http://www.w3.org/2000/svg">
<rect x="0.5" y="0.5" width="665.31" height="333" rx="25.5" stroke="#246BFE" stroke-opacity="0.08"/>
<rect x="21" y="21" width="147" height="60" rx="20" fill="white"/>
<rect x="21.5" y="21.5" width="146" height="59" rx="19.5" stroke="#246BFE" stroke-opacity="0.08"/>
<path d="M49.41 33.4H51.49V34.69H49.41V33.4ZM50.66 31.07H52.28V37.89H50.66V31.07ZM45.97 39.03H52.47V40.31H45.97V39.03ZM45.97 37.33H47.59V39.82H45.97V37.33ZM46.4 32.33H47.71V32.83C47.71 33.43 47.6233 34.0067 47.45 34.56C47.2767 35.1133 46.9967 35.6 46.61 36.02C46.2233 36.4333 45.7067 36.7433 45.06 36.95L44.26 35.67C44.6667 35.5367 45.0067 35.37 45.28 35.17C45.56 34.9633 45.78 34.7333 45.94 34.48C46.1067 34.22 46.2233 33.95 46.29 33.67C46.3633 33.39 46.4 33.11 46.4 32.83V32.33ZM46.75 32.33H48.04V32.83C48.04 33.1767 48.1 33.5267 48.22 33.88C48.3467 34.2267 48.56 34.5467 48.86 34.84C49.16 35.1267 49.5667 35.3567 50.08 35.53L49.3 36.78C48.68 36.58 48.1833 36.28 47.81 35.88C47.4367 35.48 47.1667 35.0167 47 34.49C46.8333 33.9567 46.75 33.4033 46.75 32.83V32.33ZM44.68 31.63H49.74V32.9H44.68V31.63ZM57.3692 34.54H58.6992V35.83H57.3692V34.54ZM55.0392 33.78H56.2492V33.89C56.2492 34.39 56.2159 34.8833 56.1492 35.37C56.0826 35.8567 55.9726 36.3167 55.8192 36.75C55.6659 37.1833 55.4592 37.5733 55.1992 37.92C54.9392 38.2667 54.6126 38.55 54.2192 38.77L53.3292 37.56C53.6692 37.36 53.9492 37.1233 54.1692 36.85C54.3959 36.57 54.5726 36.27 54.6992 35.95C54.8259 35.6233 54.9126 35.2867 54.9592 34.94C55.0126 34.5867 55.0392 34.2367 55.0392 33.89V33.78ZM55.3592 33.78H56.5692V33.89C56.5692 34.23 56.5926 34.57 56.6392 34.91C56.6926 35.2433 56.7826 35.5633 56.9092 35.87C57.0359 36.17 57.2092 36.4467 57.4292 36.7C57.6492 36.9533 57.9292 37.17 58.2692 37.35L57.4092 38.54C56.8826 38.2733 56.4692 37.9033 56.1692 37.43C55.8692 36.95 55.6592 36.4067 55.5392 35.8C55.4192 35.1867 55.3592 34.55 55.3592 33.89V33.78ZM53.7292 32.55H57.8592V33.84H53.7292V32.55ZM55.0392 31.36H56.5692V33.61H55.0392V31.36ZM60.1292 31.06H61.6592V40.44H60.1292V31.06ZM58.2292 31.18H59.7292V40.05H58.2292V31.18ZM70.9806 31.07H72.6006V37.75H70.9806V31.07ZM66.2306 39.03H72.8106V40.31H66.2306V39.03ZM66.2306 37.09H67.8406V39.58H66.2306V37.09ZM67.4506 31.63C67.9373 31.63 68.3773 31.7333 68.7706 31.94C69.164 32.1467 69.4773 32.4333 69.7106 32.8C69.944 33.16 70.0606 33.5767 70.0606 34.05C70.0606 34.51 69.944 34.9233 69.7106 35.29C69.4773 35.6567 69.164 35.9467 68.7706 36.16C68.3773 36.3667 67.9373 36.47 67.4506 36.47C66.964 36.47 66.524 36.3667 66.1306 36.16C65.7373 35.9467 65.424 35.6567 65.1906 35.29C64.9573 34.9233 64.8406 34.51 64.8406 34.05C64.8406 33.5767 64.9573 33.16 65.1906 32.8C65.424 32.4333 65.7373 32.1467 66.1306 31.94C66.524 31.7333 66.964 31.63 67.4506 31.63ZM67.4506 33.02C67.2573 33.02 67.0806 33.06 66.9206 33.14C66.7673 33.2133 66.644 33.3267 66.5506 33.48C66.464 33.6267 66.4206 33.8167 66.4206 34.05C66.4206 34.2767 66.464 34.4667 66.5506 34.62C66.644 34.7667 66.7673 34.88 66.9206 34.96C67.0806 35.0333 67.2573 35.07 67.4506 35.07C67.644 35.07 67.8173 35.0333 67.9706 34.96C68.1306 34.88 68.254 34.7667 68.3406 34.62C68.434 34.4667 68.4806 34.2767 68.4806 34.05C68.4806 33.8167 68.434 33.6267 68.3406 33.48C68.254 33.3267 68.1306 33.2133 67.9706 33.14C67.8173 33.06 67.644 33.02 67.4506 33.02ZM76.2698 35.93H77.8798V37.96H76.2698V35.93ZM80.3498 31.06H81.9598V38.15H80.3498V31.06ZM75.0098 39.03H82.1598V40.31H75.0098V39.03ZM75.0098 37.49H76.6198V39.37H75.0098V37.49ZM74.1098 36.38L73.9198 35.11C74.4865 35.1033 75.1032 35.0967 75.7698 35.09C76.4432 35.0767 77.1265 35.05 77.8198 35.01C78.5198 34.97 79.1932 34.91 79.8398 34.83L79.9398 35.97C79.2798 36.0833 78.6065 36.17 77.9198 36.23C77.2398 36.29 76.5732 36.33 75.9198 36.35C75.2732 36.3633 74.6698 36.3733 74.1098 36.38ZM78.6598 36.46H80.6898V37.54H78.6598V36.46ZM76.9198 31.35C77.3798 31.35 77.7865 31.4233 78.1398 31.57C78.4932 31.71 78.7698 31.91 78.9698 32.17C79.1698 32.4233 79.2698 32.7167 79.2698 33.05C79.2698 33.3833 79.1698 33.68 78.9698 33.94C78.7698 34.1933 78.4932 34.39 78.1398 34.53C77.7865 34.67 77.3798 34.74 76.9198 34.74C76.4598 34.74 76.0498 34.67 75.6898 34.53C75.3365 34.39 75.0598 34.1933 74.8598 33.94C74.6598 33.68 74.5598 33.3833 74.5598 33.05C74.5598 32.7167 74.6598 32.4233 74.8598 32.17C75.0598 31.91 75.3365 31.71 75.6898 31.57C76.0498 31.4233 76.4598 31.35 76.9198 31.35ZM76.9198 32.52C76.6732 32.52 76.4732 32.56 76.3198 32.64C76.1665 32.72 76.0898 32.8567 76.0898 33.05C76.0898 33.2367 76.1665 33.3733 76.3198 33.46C76.4732 33.54 76.6732 33.58 76.9198 33.58C77.1665 33.58 77.3632 33.54 77.5098 33.46C77.6632 33.3733 77.7398 33.2367 77.7398 33.05C77.7398 32.9233 77.7032 32.8233 77.6298 32.75C77.5632 32.67 77.4698 32.6133 77.3498 32.58C77.2298 32.54 77.0865 32.52 76.9198 32.52Z" fill="#7B8DAA"/>
<path d="M45.0611 69.5V67.5057L49.7209 63.1911C50.1172 62.8075 50.4496 62.4624 50.718 62.1555C50.9908 61.8487 51.1974 61.5483 51.3381 61.2543C51.4787 60.956 51.549 60.6342 51.549 60.2891C51.549 59.9055 51.4616 59.5753 51.2869 59.2983C51.1122 59.017 50.8736 58.8018 50.571 58.6527C50.2685 58.4993 49.9254 58.4226 49.5419 58.4226C49.1413 58.4226 48.7919 58.5036 48.4936 58.6655C48.1953 58.8274 47.9652 59.0597 47.8033 59.3622C47.6413 59.6648 47.5604 60.0249 47.5604 60.4425H44.9332C44.9332 59.5859 45.1271 58.8423 45.5149 58.2116C45.9027 57.581 46.446 57.093 47.1449 56.7479C47.8438 56.4027 48.6491 56.2301 49.5611 56.2301C50.4986 56.2301 51.3146 56.3963 52.0092 56.7287C52.7081 57.0568 53.2514 57.5128 53.6392 58.0966C54.027 58.6804 54.2209 59.3494 54.2209 60.1037C54.2209 60.598 54.1229 61.0859 53.9268 61.5675C53.7351 62.049 53.392 62.5838 52.8977 63.1719C52.4034 63.7557 51.7067 64.4567 50.8075 65.2749L48.8963 67.1477V67.2372H54.3935V69.5H45.0611ZM54.4796 67.1989V65.0192L59.9448 56.4091H61.824V59.4261H60.7118L57.2665 64.8786V64.9808H65.0328V67.1989H54.4796ZM60.7629 69.5V66.5341L60.8141 65.5689V56.4091H63.4093V69.5H60.7629ZM70.3205 69.679C69.3361 69.679 68.4604 69.5192 67.6933 69.1996C66.9305 68.8757 66.3318 68.4347 65.8972 67.8764C65.4625 67.3182 65.2452 66.6854 65.2452 65.978C65.2452 65.4325 65.3688 64.9318 65.6159 64.4759C65.8673 64.0156 66.2082 63.6342 66.6386 63.3317C67.069 63.0249 67.5506 62.8288 68.0832 62.7436V62.6541C67.3844 62.5135 66.8176 62.1747 66.383 61.6378C65.9483 61.0966 65.731 60.468 65.731 59.7521C65.731 59.0746 65.9291 58.4716 66.3254 57.9432C66.7217 57.4105 67.2651 56.9929 67.9554 56.6903C68.65 56.3835 69.4384 56.2301 70.3205 56.2301C71.2026 56.2301 71.9888 56.3835 72.6791 56.6903C73.3737 56.9972 73.9192 57.4169 74.3155 57.9496C74.7118 58.478 74.9121 59.0788 74.9163 59.7521C74.9121 60.4723 74.6905 61.1009 74.2516 61.6378C73.8126 62.1747 73.2501 62.5135 72.5641 62.6541V62.7436C73.0882 62.8288 73.5634 63.0249 73.9895 63.3317C74.4199 63.6342 74.7608 64.0156 75.0122 64.4759C75.2679 64.9318 75.3979 65.4325 75.4021 65.978C75.3979 66.6854 75.1784 67.3182 74.7438 67.8764C74.3091 68.4347 73.7082 68.8757 72.9412 69.1996C72.1784 69.5192 71.3048 69.679 70.3205 69.679ZM70.3205 67.6463C70.7594 67.6463 71.1429 67.5675 71.471 67.4098C71.7992 67.2479 72.0548 67.0263 72.2381 66.745C72.4256 66.4595 72.5193 66.1314 72.5193 65.7607C72.5193 65.3814 72.4234 65.0469 72.2317 64.7571C72.0399 64.4631 71.78 64.233 71.4519 64.0668C71.1237 63.8963 70.7466 63.8111 70.3205 63.8111C69.8986 63.8111 69.5215 63.8963 69.1891 64.0668C68.8567 64.233 68.5946 64.4631 68.4028 64.7571C68.2153 65.0469 68.1216 65.3814 68.1216 65.7607C68.1216 66.1314 68.2132 66.4595 68.3965 66.745C68.5797 67.0263 68.8375 67.2479 69.1699 67.4098C69.5023 67.5675 69.8858 67.6463 70.3205 67.6463ZM70.3205 61.7976C70.6869 61.7976 71.0129 61.723 71.2984 61.5739C71.584 61.4247 71.8077 61.218 71.9696 60.9538C72.1315 60.6896 72.2125 60.3849 72.2125 60.0398C72.2125 59.6989 72.1315 59.4006 71.9696 59.1449C71.8077 58.8849 71.5861 58.6825 71.3048 58.5376C71.0236 58.3885 70.6955 58.3139 70.3205 58.3139C69.9497 58.3139 69.6216 58.3885 69.3361 58.5376C69.0506 58.6825 68.8269 58.8849 68.6649 59.1449C68.5073 59.4006 68.4284 59.6989 68.4284 60.0398C68.4284 60.3849 68.5094 60.6896 68.6713 60.9538C68.8332 61.218 69.057 61.4247 69.3425 61.5739C69.628 61.723 69.954 61.7976 70.3205 61.7976ZM83.6203 56.828H87.8683V58.736H83.6203V56.828ZM83.6203 60.158H87.9403V62.066H83.6203V60.158ZM87.1123 54.434H89.5243V64.19H87.1123V54.434ZM76.2403 55.622H84.1243V63.29H76.2403V55.622ZM81.7843 57.512H78.5983V61.418H81.7843V57.512ZM83.8723 64.622C85.6363 64.622 87.0283 64.91 88.0483 65.486C89.0683 66.05 89.5783 66.836 89.5783 67.844C89.5783 68.876 89.0683 69.674 88.0483 70.238C87.0283 70.814 85.6363 71.102 83.8723 71.102C82.1083 71.102 80.7163 70.814 79.6963 70.238C78.6763 69.674 78.1663 68.876 78.1663 67.844C78.1663 66.836 78.6763 66.05 79.6963 65.486C80.7163 64.91 82.1083 64.622 83.8723 64.622ZM83.8723 66.458C83.1523 66.458 82.5463 66.506 82.0543 66.602C81.5623 66.698 81.1843 66.854 80.9203 67.07C80.6683 67.274 80.5423 67.538 80.5423 67.862C80.5423 68.174 80.6683 68.438 80.9203 68.654C81.1843 68.858 81.5623 69.014 82.0543 69.122C82.5463 69.218 83.1523 69.266 83.8723 69.266C84.5923 69.266 85.1983 69.218 85.6903 69.122C86.1823 69.014 86.5543 68.858 86.8063 68.654C87.0583 68.438 87.1843 68.174 87.1843 67.862C87.1843 67.538 87.0583 67.274 86.8063 67.07C86.5543 66.854 86.1823 66.698 85.6903 66.602C85.1983 66.506 84.5923 66.458 83.8723 66.458Z" fill="#071F49"/>
<rect x="180" y="21" width="147" height="60" rx="20" fill="white"/>
<rect x="180.5" y="21.5" width="146" height="59" rx="19.5" stroke="#246BFE" stroke-opacity="0.08"/>
<path d="M206.79 35.83H208.4V37.86H206.79V35.83ZM207.6 30.97C208.273 30.97 208.877 31.08 209.41 31.3C209.95 31.52 210.377 31.83 210.69 32.23C211.003 32.6233 211.16 33.0867 211.16 33.62C211.16 34.16 211.003 34.63 210.69 35.03C210.377 35.43 209.95 35.74 209.41 35.96C208.877 36.18 208.273 36.29 207.6 36.29C206.927 36.29 206.32 36.18 205.78 35.96C205.247 35.74 204.823 35.43 204.51 35.03C204.197 34.63 204.04 34.16 204.04 33.62C204.04 33.0867 204.197 32.6233 204.51 32.23C204.823 31.83 205.247 31.52 205.78 31.3C206.32 31.08 206.927 30.97 207.6 30.97ZM207.6 32.24C207.207 32.24 206.863 32.2933 206.57 32.4C206.277 32.5067 206.047 32.6633 205.88 32.87C205.72 33.07 205.64 33.32 205.64 33.62C205.64 33.92 205.72 34.1733 205.88 34.38C206.047 34.5867 206.277 34.7433 206.57 34.85C206.863 34.9567 207.207 35.01 207.6 35.01C207.993 35.01 208.337 34.9567 208.63 34.85C208.923 34.7433 209.15 34.5867 209.31 34.38C209.477 34.1733 209.56 33.92 209.56 33.62C209.56 33.32 209.477 33.07 209.31 32.87C209.15 32.6633 208.923 32.5067 208.63 32.4C208.337 32.2933 207.993 32.24 207.6 32.24ZM203.36 37.62H211.85V38.92H203.36V37.62ZM213.549 32.24H220.089V33.5H213.549V32.24ZM212.559 33.95H221.049V35.21H212.559V33.95ZM213.549 30.64H215.159V32.94H213.549V30.64ZM213.459 35.63H220.089V38.28H215.089V38.9H213.469V37.16H218.469V36.83H213.459V35.63ZM213.469 38.65H220.339V39.86H213.469V38.65ZM227.181 35.39H228.791V36.71H227.181V35.39ZM223.771 34.45H232.211V35.61H223.771V34.45ZM227.171 30.58H228.781V31.71H227.171V30.58ZM227.071 31.76H228.491V31.97C228.491 32.29 228.414 32.5867 228.261 32.86C228.107 33.1267 227.871 33.3633 227.551 33.57C227.231 33.7767 226.814 33.9433 226.301 34.07C225.794 34.1967 225.181 34.2767 224.461 34.31L224.021 33.13C224.654 33.11 225.167 33.06 225.561 32.98C225.961 32.9 226.271 32.8033 226.491 32.69C226.711 32.5767 226.861 32.4567 226.941 32.33C227.027 32.2033 227.071 32.0833 227.071 31.97V31.76ZM227.461 31.76H228.881V31.97C228.881 32.0833 228.921 32.2033 229.001 32.33C229.087 32.4567 229.241 32.5767 229.461 32.69C229.681 32.8033 229.991 32.9 230.391 32.98C230.791 33.06 231.304 33.11 231.931 33.13L231.491 34.31C230.771 34.2767 230.154 34.1967 229.641 34.07C229.134 33.9433 228.721 33.7767 228.401 33.57C228.081 33.3633 227.844 33.1267 227.691 32.86C227.537 32.5867 227.461 32.29 227.461 31.97V31.76ZM224.521 31.24H231.441V32.4H224.521V31.24ZM224.681 36.02H231.231V38.48H226.281V39.24H224.691V37.42H229.641V37.16H224.681V36.02ZM224.691 38.75H231.461V39.91H224.691V38.75ZM233.97 31.06H239.86V32.33H233.97V31.06ZM232.95 34.62H241.44V35.9H232.95V34.62ZM238.91 31.06H240.51V31.91C240.51 32.3633 240.497 32.8467 240.47 33.36C240.45 33.8667 240.367 34.4467 240.22 35.1L238.63 34.96C238.77 34.3267 238.85 33.7733 238.87 33.3C238.897 32.82 238.91 32.3567 238.91 31.91V31.06ZM233.99 38.53H240.76V39.81H233.99V38.53ZM233.99 36.57H235.59V38.64H233.99V36.57Z" fill="#7B8DAA"/>
<path d="M204.061 69V67.0057L208.721 62.6911C209.117 62.3075 209.45 61.9624 209.718 61.6555C209.991 61.3487 210.197 61.0483 210.338 60.7543C210.479 60.456 210.549 60.1342 210.549 59.7891C210.549 59.4055 210.462 59.0753 210.287 58.7983C210.112 58.517 209.874 58.3018 209.571 58.1527C209.268 57.9993 208.925 57.9226 208.542 57.9226C208.141 57.9226 207.792 58.0036 207.494 58.1655C207.195 58.3274 206.965 58.5597 206.803 58.8622C206.641 59.1648 206.56 59.5249 206.56 59.9425H203.933C203.933 59.0859 204.127 58.3423 204.515 57.7116C204.903 57.081 205.446 56.593 206.145 56.2479C206.844 55.9027 207.649 55.7301 208.561 55.7301C209.499 55.7301 210.315 55.8963 211.009 56.2287C211.708 56.5568 212.251 57.0128 212.639 57.5966C213.027 58.1804 213.221 58.8494 213.221 59.6037C213.221 60.098 213.123 60.5859 212.927 61.0675C212.735 61.549 212.392 62.0838 211.898 62.6719C211.403 63.2557 210.707 63.9567 209.808 64.7749L207.896 66.6477V66.7372H213.393V69H204.061ZM218.798 69.179C217.843 69.179 216.993 69.0149 216.247 68.6868C215.506 68.3544 214.92 67.8984 214.49 67.3189C214.063 66.7351 213.844 66.0618 213.831 65.299H216.618C216.635 65.6186 216.74 65.8999 216.931 66.1428C217.127 66.3814 217.387 66.5668 217.711 66.6989C218.035 66.831 218.399 66.897 218.804 66.897C219.226 66.897 219.599 66.8224 219.923 66.6733C220.247 66.5241 220.5 66.3175 220.683 66.0533C220.867 65.7891 220.958 65.4844 220.958 65.1392C220.958 64.7898 220.86 64.4808 220.664 64.2124C220.472 63.9396 220.195 63.7266 219.833 63.5732C219.475 63.4197 219.049 63.343 218.555 63.343H217.334V61.3104H218.555C218.972 61.3104 219.341 61.2379 219.661 61.093C219.985 60.9482 220.236 60.7479 220.415 60.4922C220.594 60.2322 220.683 59.9297 220.683 59.5845C220.683 59.2564 220.605 58.9688 220.447 58.7216C220.293 58.4702 220.076 58.2741 219.795 58.1335C219.518 57.9929 219.194 57.9226 218.823 57.9226C218.448 57.9226 218.105 57.9908 217.794 58.1271C217.483 58.2592 217.234 58.4489 217.046 58.696C216.859 58.9432 216.759 59.233 216.746 59.5653H214.093C214.106 58.8111 214.321 58.1463 214.739 57.571C215.156 56.9957 215.719 56.5462 216.426 56.2223C217.138 55.8942 217.941 55.7301 218.836 55.7301C219.74 55.7301 220.53 55.8942 221.208 56.2223C221.885 56.5504 222.411 56.9936 222.786 57.5518C223.166 58.1058 223.353 58.728 223.349 59.4183C223.353 60.1513 223.125 60.7628 222.665 61.2528C222.209 61.7429 221.615 62.054 220.882 62.1861V62.2884C221.845 62.4119 222.578 62.7464 223.08 63.2919C223.588 63.8331 223.839 64.5107 223.835 65.3246C223.839 66.0703 223.624 66.733 223.189 67.3125C222.759 67.892 222.164 68.348 221.406 68.6804C220.647 69.0128 219.778 69.179 218.798 69.179ZM230.08 55.9091V69H227.312V58.5362H227.235L224.237 60.4155V57.9609L227.478 55.9091H230.08ZM239.474 56.328H243.722V58.236H239.474V56.328ZM239.474 59.658H243.794V61.566H239.474V59.658ZM242.966 53.934H245.378V63.69H242.966V53.934ZM232.094 55.122H239.978V62.79H232.094V55.122ZM237.638 57.012H234.452V60.918H237.638V57.012ZM239.726 64.122C241.49 64.122 242.882 64.41 243.902 64.986C244.922 65.55 245.432 66.336 245.432 67.344C245.432 68.376 244.922 69.174 243.902 69.738C242.882 70.314 241.49 70.602 239.726 70.602C237.962 70.602 236.57 70.314 235.55 69.738C234.53 69.174 234.02 68.376 234.02 67.344C234.02 66.336 234.53 65.55 235.55 64.986C236.57 64.41 237.962 64.122 239.726 64.122ZM239.726 65.958C239.006 65.958 238.4 66.006 237.908 66.102C237.416 66.198 237.038 66.354 236.774 66.57C236.522 66.774 236.396 67.038 236.396 67.362C236.396 67.674 236.522 67.938 236.774 68.154C237.038 68.358 237.416 68.514 237.908 68.622C238.4 68.718 239.006 68.766 239.726 68.766C240.446 68.766 241.052 68.718 241.544 68.622C242.036 68.514 242.408 68.358 242.66 68.154C242.912 67.938 243.038 67.674 243.038 67.362C243.038 67.038 242.912 66.774 242.66 66.57C242.408 66.354 242.036 66.198 241.544 66.102C241.052 66.006 240.446 65.958 239.726 65.958Z" fill="#071F49"/>
<rect x="339" y="21" width="147" height="60" rx="20" fill="white"/>
<rect x="339.5" y="21.5" width="146" height="59" rx="19.5" stroke="#246BFE" stroke-opacity="0.08"/>
<path d="M364.18 37.62H365.8V39.97H364.18V37.62ZM367.43 37.62H369.05V39.97H367.43V37.62ZM362.73 31.45H370.43V32.7H362.73V31.45ZM362.36 36.57H370.85V37.85H362.36V36.57ZM366.6 32.97C367.64 32.97 368.45 33.11 369.03 33.39C369.617 33.67 369.91 34.07 369.91 34.59C369.91 35.1167 369.617 35.5233 369.03 35.81C368.45 36.09 367.64 36.23 366.6 36.23C365.56 36.23 364.747 36.09 364.16 35.81C363.58 35.5233 363.29 35.1167 363.29 34.59C363.29 34.07 363.58 33.67 364.16 33.39C364.747 33.11 365.56 32.97 366.6 32.97ZM366.6 34.15C366.027 34.15 365.61 34.1833 365.35 34.25C365.09 34.31 364.96 34.4233 364.96 34.59C364.96 34.7567 365.09 34.8733 365.35 34.94C365.61 35.0067 366.027 35.04 366.6 35.04C367.173 35.04 367.59 35.0067 367.85 34.94C368.11 34.8733 368.24 34.7567 368.24 34.59C368.24 34.4233 368.11 34.31 367.85 34.25C367.59 34.1833 367.173 34.15 366.6 34.15ZM365.79 30.58H367.4V32.32H365.79V30.58ZM377.359 30.55H378.979V39.93H377.359V30.55ZM378.569 34.02H380.179V35.34H378.569V34.02ZM374.859 31.5H376.439C376.439 32.4667 376.313 33.3767 376.059 34.23C375.806 35.0767 375.376 35.8533 374.769 36.56C374.169 37.26 373.339 37.8767 372.279 38.41L371.379 37.19C372.179 36.77 372.836 36.3067 373.349 35.8C373.863 35.2933 374.243 34.7133 374.489 34.06C374.736 33.4 374.859 32.6433 374.859 31.79V31.5ZM371.939 31.5H375.689V32.79H371.939V31.5ZM382.738 32.12H384.008V32.92C384.008 33.4667 383.958 34.01 383.858 34.55C383.765 35.09 383.615 35.5967 383.408 36.07C383.208 36.5433 382.942 36.9667 382.608 37.34C382.282 37.7067 381.885 37.9967 381.418 38.21L380.518 36.94C380.932 36.7467 381.278 36.5 381.558 36.2C381.845 35.9 382.075 35.57 382.248 35.21C382.422 34.8433 382.545 34.4667 382.618 34.08C382.698 33.6867 382.738 33.3 382.738 32.92V32.12ZM383.088 32.12H384.358V32.92C384.358 33.2667 384.395 33.6233 384.468 33.99C384.548 34.35 384.672 34.7033 384.838 35.05C385.012 35.3967 385.238 35.7133 385.518 36C385.805 36.28 386.152 36.5133 386.558 36.7L385.678 37.97C385.212 37.7633 384.815 37.4833 384.488 37.13C384.162 36.77 383.895 36.3633 383.688 35.91C383.482 35.4567 383.328 34.9767 383.228 34.47C383.135 33.9567 383.088 33.44 383.088 32.92V32.12ZM380.898 31.43H386.098V32.75H380.898V31.43ZM386.558 30.57H388.178V39.95H386.558V30.57ZM387.828 34.03H389.438V35.35H387.828V34.03Z" fill="#7B8DAA"/>
<path d="M367.945 69.179C366.96 69.179 366.085 69.0192 365.317 68.6996C364.555 68.3757 363.956 67.9347 363.521 67.3764C363.087 66.8182 362.869 66.1854 362.869 65.478C362.869 64.9325 362.993 64.4318 363.24 63.9759C363.491 63.5156 363.832 63.1342 364.263 62.8317C364.693 62.5249 365.175 62.3288 365.707 62.2436V62.1541C365.009 62.0135 364.442 61.6747 364.007 61.1378C363.572 60.5966 363.355 59.968 363.355 59.2521C363.355 58.5746 363.553 57.9716 363.95 57.4432C364.346 56.9105 364.889 56.4929 365.58 56.1903C366.274 55.8835 367.062 55.7301 367.945 55.7301C368.827 55.7301 369.613 55.8835 370.303 56.1903C370.998 56.4972 371.543 56.9169 371.94 57.4496C372.336 57.978 372.536 58.5788 372.54 59.2521C372.536 59.9723 372.315 60.6009 371.876 61.1378C371.437 61.6747 370.874 62.0135 370.188 62.1541V62.2436C370.712 62.3288 371.188 62.5249 371.614 62.8317C372.044 63.1342 372.385 63.5156 372.636 63.9759C372.892 64.4318 373.022 64.9325 373.026 65.478C373.022 66.1854 372.803 66.8182 372.368 67.3764C371.933 67.9347 371.332 68.3757 370.565 68.6996C369.803 69.0192 368.929 69.179 367.945 69.179ZM367.945 67.1463C368.384 67.1463 368.767 67.0675 369.095 66.9098C369.423 66.7479 369.679 66.5263 369.862 66.245C370.05 65.9595 370.143 65.6314 370.143 65.2607C370.143 64.8814 370.048 64.5469 369.856 64.2571C369.664 63.9631 369.404 63.733 369.076 63.5668C368.748 63.3963 368.371 63.3111 367.945 63.3111C367.523 63.3111 367.146 63.3963 366.813 63.5668C366.481 63.733 366.219 63.9631 366.027 64.2571C365.839 64.5469 365.746 64.8814 365.746 65.2607C365.746 65.6314 365.837 65.9595 366.021 66.245C366.204 66.5263 366.462 66.7479 366.794 66.9098C367.126 67.0675 367.51 67.1463 367.945 67.1463ZM367.945 61.2976C368.311 61.2976 368.637 61.223 368.923 61.0739C369.208 60.9247 369.432 60.718 369.594 60.4538C369.756 60.1896 369.837 59.8849 369.837 59.5398C369.837 59.1989 369.756 58.9006 369.594 58.6449C369.432 58.3849 369.21 58.1825 368.929 58.0376C368.648 57.8885 368.32 57.8139 367.945 57.8139C367.574 57.8139 367.246 57.8885 366.96 58.0376C366.675 58.1825 366.451 58.3849 366.289 58.6449C366.131 58.9006 366.053 59.1989 366.053 59.5398C366.053 59.8849 366.134 60.1896 366.295 60.4538C366.457 60.718 366.681 60.9247 366.967 61.0739C367.252 61.223 367.578 61.2976 367.945 61.2976ZM381.244 56.328H385.492V58.236H381.244V56.328ZM381.244 59.658H385.564V61.566H381.244V59.658ZM384.736 53.934H387.148V63.69H384.736V53.934ZM373.864 55.122H381.748V62.79H373.864V55.122ZM379.408 57.012H376.222V60.918H379.408V57.012ZM381.496 64.122C383.26 64.122 384.652 64.41 385.672 64.986C386.692 65.55 387.202 66.336 387.202 67.344C387.202 68.376 386.692 69.174 385.672 69.738C384.652 70.314 383.26 70.602 381.496 70.602C379.732 70.602 378.34 70.314 377.32 69.738C376.3 69.174 375.79 68.376 375.79 67.344C375.79 66.336 376.3 65.55 377.32 64.986C378.34 64.41 379.732 64.122 381.496 64.122ZM381.496 65.958C380.776 65.958 380.17 66.006 379.678 66.102C379.186 66.198 378.808 66.354 378.544 66.57C378.292 66.774 378.166 67.038 378.166 67.362C378.166 67.674 378.292 67.938 378.544 68.154C378.808 68.358 379.186 68.514 379.678 68.622C380.17 68.718 380.776 68.766 381.496 68.766C382.216 68.766 382.822 68.718 383.314 68.622C383.806 68.514 384.178 68.358 384.43 68.154C384.682 67.938 384.808 67.674 384.808 67.362C384.808 67.038 384.682 66.774 384.43 66.57C384.178 66.354 383.806 66.198 383.314 66.102C382.822 66.006 382.216 65.958 381.496 65.958Z" fill="#071F49"/>
<rect x="498" y="21" width="147" height="60" rx="20" fill="white"/>
<rect x="498.5" y="21.5" width="146" height="59" rx="19.5" stroke="#246BFE" stroke-opacity="0.08"/>
<path d="M524.77 30.72H526.15V30.93C526.15 31.2633 526.1 31.5867 526 31.9C525.907 32.2133 525.763 32.5067 525.57 32.78C525.377 33.0533 525.127 33.3 524.82 33.52C524.513 33.74 524.15 33.9267 523.73 34.08C523.317 34.2333 522.843 34.3433 522.31 34.41L521.73 33.16C522.197 33.1067 522.6 33.0233 522.94 32.91C523.287 32.7967 523.577 32.6633 523.81 32.51C524.043 32.3567 524.23 32.19 524.37 32.01C524.51 31.83 524.61 31.65 524.67 31.47C524.737 31.2833 524.77 31.1033 524.77 30.93V30.72ZM525.04 30.72H526.42V30.93C526.42 31.1033 526.45 31.2833 526.51 31.47C526.577 31.65 526.68 31.83 526.82 32.01C526.96 32.19 527.147 32.3567 527.38 32.51C527.613 32.6633 527.9 32.7967 528.24 32.91C528.587 33.0233 528.993 33.1067 529.46 33.16L528.88 34.41C528.347 34.3433 527.87 34.2333 527.45 34.08C527.037 33.9267 526.677 33.74 526.37 33.52C526.063 33.3 525.813 33.0533 525.62 32.78C525.427 32.5067 525.28 32.2133 525.18 31.9C525.087 31.5867 525.04 31.2633 525.04 30.93V30.72ZM521.35 34.78H529.84V36.04H521.35V34.78ZM525.57 36.52C526.59 36.52 527.39 36.67 527.97 36.97C528.557 37.27 528.85 37.6967 528.85 38.25C528.85 38.7967 528.557 39.22 527.97 39.52C527.39 39.82 526.59 39.97 525.57 39.97C524.55 39.97 523.747 39.82 523.16 39.52C522.58 39.22 522.29 38.7967 522.29 38.25C522.29 37.6967 522.58 37.27 523.16 36.97C523.747 36.67 524.55 36.52 525.57 36.52ZM525.57 37.73C525.19 37.73 524.877 37.7467 524.63 37.78C524.39 37.8133 524.21 37.87 524.09 37.95C523.977 38.0233 523.92 38.1233 523.92 38.25C523.92 38.3767 523.977 38.48 524.09 38.56C524.21 38.6333 524.39 38.6867 524.63 38.72C524.877 38.7533 525.19 38.77 525.57 38.77C525.95 38.77 526.26 38.7533 526.5 38.72C526.747 38.6867 526.927 38.6333 527.04 38.56C527.16 38.48 527.22 38.3767 527.22 38.25C527.22 38.1233 527.16 38.0233 527.04 37.95C526.927 37.87 526.747 37.8133 526.5 37.78C526.26 37.7467 525.95 37.73 525.57 37.73ZM536.789 30.57H538.409V37.25H536.789V30.57ZM532.039 38.53H538.619V39.81H532.039V38.53ZM532.039 36.59H533.649V39.08H532.039V36.59ZM533.259 31.13C533.746 31.13 534.186 31.2333 534.579 31.44C534.973 31.6467 535.286 31.9333 535.519 32.3C535.753 32.66 535.869 33.0767 535.869 33.55C535.869 34.01 535.753 34.4233 535.519 34.79C535.286 35.1567 534.973 35.4467 534.579 35.66C534.186 35.8667 533.746 35.97 533.259 35.97C532.773 35.97 532.333 35.8667 531.939 35.66C531.546 35.4467 531.233 35.1567 530.999 34.79C530.766 34.4233 530.649 34.01 530.649 33.55C530.649 33.0767 530.766 32.66 530.999 32.3C531.233 31.9333 531.546 31.6467 531.939 31.44C532.333 31.2333 532.773 31.13 533.259 31.13ZM533.259 32.52C533.066 32.52 532.889 32.56 532.729 32.64C532.576 32.7133 532.453 32.8267 532.359 32.98C532.273 33.1267 532.229 33.3167 532.229 33.55C532.229 33.7767 532.273 33.9667 532.359 34.12C532.453 34.2667 532.576 34.38 532.729 34.46C532.889 34.5333 533.066 34.57 533.259 34.57C533.453 34.57 533.626 34.5333 533.779 34.46C533.939 34.38 534.063 34.2667 534.149 34.12C534.243 33.9667 534.289 33.7767 534.289 33.55C534.289 33.3167 534.243 33.1267 534.149 32.98C534.063 32.8267 533.939 32.7133 533.779 32.64C533.626 32.56 533.453 32.52 533.259 32.52ZM548.321 30.56H549.851V39.94H548.321V30.56ZM547.251 34.09H548.681V35.38H547.251V34.09ZM546.241 30.7H547.731V39.52H546.241V30.7ZM541.971 36.62H542.651C542.997 36.62 543.341 36.6167 543.681 36.61C544.021 36.5967 544.364 36.5733 544.711 36.54C545.057 36.5067 545.417 36.46 545.791 36.4L545.911 37.7C545.531 37.7667 545.161 37.82 544.801 37.86C544.441 37.8933 544.084 37.9167 543.731 37.93C543.377 37.9367 543.017 37.94 542.651 37.94H541.971V36.62ZM541.971 31.62H545.421V32.91H543.561V37.26H541.971V31.62ZM557.21 30.56H558.83V39.94H557.21V30.56ZM554.43 31.51H556.03C556.03 32.25 555.967 32.95 555.84 33.61C555.713 34.27 555.493 34.89 555.18 35.47C554.873 36.05 554.44 36.59 553.88 37.09C553.327 37.5833 552.62 38.0367 551.76 38.45L550.92 37.18C551.82 36.7467 552.523 36.2767 553.03 35.77C553.543 35.2633 553.903 34.6867 554.11 34.04C554.323 33.3933 554.43 32.65 554.43 31.81V31.51ZM551.46 31.51H555.21V32.78H551.46V31.51Z" fill="#7B8DAA"/>
<path d="M526.9 69.179C525.945 69.179 525.095 69.0149 524.349 68.6868C523.608 68.3544 523.022 67.8984 522.592 67.3189C522.165 66.7351 521.946 66.0618 521.933 65.299H524.72C524.737 65.6186 524.842 65.8999 525.033 66.1428C525.229 66.3814 525.489 66.5668 525.813 66.6989C526.137 66.831 526.501 66.897 526.906 66.897C527.328 66.897 527.701 66.8224 528.025 66.6733C528.349 66.5241 528.602 66.3175 528.786 66.0533C528.969 65.7891 529.06 65.4844 529.06 65.1392C529.06 64.7898 528.962 64.4808 528.766 64.2124C528.575 63.9396 528.298 63.7266 527.935 63.5732C527.577 63.4197 527.151 63.343 526.657 63.343H525.436V61.3104H526.657C527.075 61.3104 527.443 61.2379 527.763 61.093C528.087 60.9482 528.338 60.7479 528.517 60.4922C528.696 60.2322 528.786 59.9297 528.786 59.5845C528.786 59.2564 528.707 58.9688 528.549 58.7216C528.396 58.4702 528.178 58.2741 527.897 58.1335C527.62 57.9929 527.296 57.9226 526.925 57.9226C526.55 57.9226 526.207 57.9908 525.896 58.1271C525.585 58.2592 525.336 58.4489 525.148 58.696C524.961 58.9432 524.861 59.233 524.848 59.5653H522.195C522.208 58.8111 522.423 58.1463 522.841 57.571C523.259 56.9957 523.821 56.5462 524.528 56.2223C525.24 55.8942 526.043 55.7301 526.938 55.7301C527.842 55.7301 528.632 55.8942 529.31 56.2223C529.987 56.5504 530.513 56.9936 530.888 57.5518C531.268 58.1058 531.455 58.728 531.451 59.4183C531.455 60.1513 531.227 60.7628 530.767 61.2528C530.311 61.7429 529.717 62.054 528.984 62.1861V62.2884C529.947 62.4119 530.68 62.7464 531.183 63.2919C531.69 63.8331 531.941 64.5107 531.937 65.3246C531.941 66.0703 531.726 66.733 531.291 67.3125C530.861 67.892 530.266 68.348 529.508 68.6804C528.749 69.0128 527.88 69.179 526.9 69.179ZM532.486 69V67.0057L537.146 62.6911C537.542 62.3075 537.875 61.9624 538.143 61.6555C538.416 61.3487 538.623 61.0483 538.763 60.7543C538.904 60.456 538.974 60.1342 538.974 59.7891C538.974 59.4055 538.887 59.0753 538.712 58.7983C538.537 58.517 538.299 58.3018 537.996 58.1527C537.694 57.9993 537.351 57.9226 536.967 57.9226C536.567 57.9226 536.217 58.0036 535.919 58.1655C535.621 58.3274 535.39 58.5597 535.229 58.8622C535.067 59.1648 534.986 59.5249 534.986 59.9425H532.358C532.358 59.0859 532.552 58.3423 532.94 57.7116C533.328 57.081 533.871 56.593 534.57 56.2479C535.269 55.9027 536.074 55.7301 536.986 55.7301C537.924 55.7301 538.74 55.8963 539.434 56.2287C540.133 56.5568 540.677 57.0128 541.064 57.5966C541.452 58.1804 541.646 58.8494 541.646 59.6037C541.646 60.098 541.548 60.5859 541.352 61.0675C541.16 61.549 540.817 62.0838 540.323 62.6719C539.829 63.2557 539.132 63.9567 538.233 64.7749L536.322 66.6477V66.7372H541.819V69H532.486ZM553.599 53.916H556.011V66.102H553.599V53.916ZM550.737 58.776H553.941V60.72H550.737V58.776ZM548.361 55.176H550.863C550.863 56.676 550.563 58.032 549.963 59.244C549.363 60.456 548.493 61.506 547.353 62.394C546.225 63.282 544.851 63.984 543.231 64.5L542.241 62.592C543.525 62.184 544.623 61.668 545.535 61.044C546.447 60.408 547.143 59.688 547.623 58.884C548.115 58.068 548.361 57.192 548.361 56.256V55.176ZM543.105 55.176H549.873V57.084H543.105V55.176ZM545.085 68.388H556.425V70.314H545.085V68.388ZM545.085 64.896H547.479V69.504H545.085V64.896Z" fill="#071F49"/>
<rect x="21" y="103" width="330" height="210" rx="22" fill="white"/>
<rect x="21.5" y="103.5" width="329" height="209" rx="21.5" stroke="#246BFE" stroke-opacity="0.08"/>
<path d="M46.771 131.971H48.591V132.244C48.591 132.669 48.5303 133.08 48.409 133.479C48.2963 133.869 48.1143 134.237 47.863 134.584C47.6117 134.931 47.291 135.243 46.901 135.52C46.5197 135.789 46.0603 136.018 45.523 136.209C44.9943 136.4 44.3833 136.538 43.69 136.625L42.936 135C43.534 134.931 44.0497 134.827 44.483 134.688C44.9163 134.541 45.2803 134.372 45.575 134.181C45.8697 133.99 46.1037 133.787 46.277 133.57C46.459 133.353 46.5847 133.132 46.654 132.907C46.732 132.673 46.771 132.452 46.771 132.244V131.971ZM47.395 131.971H49.215V132.244C49.215 132.452 49.2497 132.673 49.319 132.907C49.397 133.132 49.5227 133.353 49.696 133.57C49.878 133.787 50.1163 133.99 50.411 134.181C50.7057 134.372 51.0697 134.541 51.503 134.688C51.9363 134.827 52.452 134.931 53.05 135L52.296 136.625C51.6027 136.538 50.9873 136.4 50.45 136.209C49.9213 136.018 49.462 135.789 49.072 135.52C48.6907 135.243 48.3743 134.931 48.123 134.584C47.8717 134.237 47.6853 133.869 47.564 133.479C47.4513 133.08 47.395 132.669 47.395 132.244V131.971ZM46.888 138.367H48.981V142.748H46.888V138.367ZM42.468 137.145H53.505V138.809H42.468V137.145ZM43.417 131.087H52.53V132.725H43.417V131.087ZM61.98 130.541H64.086V139.16H61.98V130.541ZM63.514 133.778H65.607V135.481H63.514V133.778ZM58.548 131.425H60.784C60.784 132.56 60.5717 133.57 60.147 134.454C59.7223 135.329 59.0897 136.075 58.249 136.69C57.417 137.297 56.3813 137.769 55.142 138.107L54.271 136.456C55.2503 136.205 56.0563 135.88 56.689 135.481C57.3217 135.074 57.7897 134.619 58.093 134.116C58.3963 133.605 58.548 133.063 58.548 132.491V131.425ZM54.817 131.425H59.692V133.089H54.817V131.425ZM56.052 140.889H64.437V142.553H56.052V140.889ZM56.052 138.289H58.158V141.656H56.052V138.289ZM70.3018 131.178H77.9588V132.829H70.3018V131.178ZM68.9758 135.806H80.0128V137.47H68.9758V135.806ZM76.7238 131.178H78.8038V132.283C78.8038 132.872 78.7865 133.501 78.7518 134.168C78.7258 134.827 78.6175 135.581 78.4268 136.43L76.3598 136.248C76.5418 135.425 76.6458 134.705 76.6718 134.09C76.7065 133.466 76.7238 132.864 76.7238 132.283V131.178ZM70.3278 140.889H79.1288V142.553H70.3278V140.889ZM70.3278 138.341H72.4078V141.032H70.3278V138.341ZM81.2858 138.354H82.1828C82.7461 138.354 83.2575 138.35 83.7168 138.341C84.1761 138.332 84.6181 138.315 85.0428 138.289C85.4761 138.263 85.9181 138.22 86.3688 138.159L86.5378 139.836C86.0785 139.905 85.6235 139.957 85.1728 139.992C84.7308 140.027 84.2671 140.048 83.7818 140.057C83.2965 140.066 82.7635 140.07 82.1828 140.07H81.2858V138.354ZM81.2858 131.724H86.2778V133.375H83.2748V139.056H81.2858V131.724ZM82.7158 134.896H86.0178V136.495H82.7158V134.896ZM89.4758 130.528H91.4648V142.722H89.4758V130.528ZM88.2668 135.156H90.1128V136.833H88.2668V135.156ZM86.8758 130.684H88.8258V142.215H86.8758V130.684ZM99.9296 138.367H102.023V142.748H99.9296V138.367ZM95.4836 137.795H106.521V139.485H95.4836V137.795ZM99.9166 132.777H101.763V133.05C101.763 133.449 101.702 133.843 101.581 134.233C101.459 134.614 101.269 134.978 101.009 135.325C100.757 135.663 100.428 135.971 100.021 136.248C99.622 136.525 99.1453 136.759 98.5906 136.95C98.0446 137.132 97.412 137.262 96.6926 137.34L95.9646 135.702C96.58 135.633 97.1086 135.529 97.5506 135.39C98.0013 135.251 98.3783 135.087 98.6816 134.896C98.985 134.705 99.2276 134.506 99.4096 134.298C99.5916 134.081 99.7216 133.865 99.7996 133.648C99.8776 133.431 99.9166 133.232 99.9166 133.05V132.777ZM100.19 132.777H102.036V133.05C102.036 133.223 102.075 133.418 102.153 133.635C102.239 133.843 102.374 134.055 102.556 134.272C102.738 134.489 102.98 134.692 103.284 134.883C103.587 135.074 103.96 135.243 104.402 135.39C104.852 135.529 105.381 135.633 105.988 135.702L105.26 137.34C104.54 137.271 103.903 137.141 103.349 136.95C102.803 136.751 102.326 136.512 101.919 136.235C101.52 135.958 101.191 135.646 100.931 135.299C100.679 134.952 100.493 134.588 100.372 134.207C100.25 133.826 100.19 133.44 100.19 133.05V132.777ZM96.4326 131.867H105.546V133.505H96.4326V131.867ZM99.9296 130.58H102.023V132.426H99.9296V130.58ZM115.529 130.515H117.635V142.761H115.529V130.515ZM110.992 131.321C111.616 131.321 112.175 131.503 112.669 131.867C113.163 132.222 113.548 132.729 113.826 133.388C114.112 134.047 114.255 134.827 114.255 135.728C114.255 136.638 114.112 137.427 113.826 138.094C113.548 138.753 113.163 139.264 112.669 139.628C112.175 139.983 111.616 140.161 110.992 140.161C110.368 140.161 109.809 139.983 109.315 139.628C108.821 139.264 108.431 138.753 108.145 138.094C107.867 137.427 107.729 136.638 107.729 135.728C107.729 134.827 107.867 134.047 108.145 133.388C108.431 132.729 108.821 132.222 109.315 131.867C109.809 131.503 110.368 131.321 110.992 131.321ZM110.992 133.232C110.74 133.232 110.519 133.323 110.329 133.505C110.147 133.678 110.004 133.951 109.9 134.324C109.796 134.688 109.744 135.156 109.744 135.728C109.744 136.3 109.796 136.772 109.9 137.145C110.004 137.518 110.147 137.795 110.329 137.977C110.519 138.159 110.74 138.25 110.992 138.25C111.243 138.25 111.46 138.159 111.642 137.977C111.832 137.795 111.98 137.518 112.084 137.145C112.188 136.772 112.24 136.3 112.24 135.728C112.24 135.156 112.188 134.688 112.084 134.324C111.98 133.951 111.832 133.678 111.642 133.505C111.46 133.323 111.243 133.232 110.992 133.232Z" fill="#071F49"/>
<path d="M291.9 136.74H293.52V138.62H291.9V136.74ZM291.89 133.37H293.17V133.58C293.17 134.093 293.083 134.583 292.91 135.05C292.736 135.51 292.456 135.913 292.07 136.26C291.69 136.6 291.183 136.85 290.55 137.01L289.83 135.77C290.35 135.643 290.76 135.463 291.06 135.23C291.36 134.997 291.573 134.737 291.7 134.45C291.826 134.157 291.89 133.867 291.89 133.58V133.37ZM292.24 133.37H293.53V133.58C293.53 133.853 293.593 134.13 293.72 134.41C293.846 134.69 294.06 134.943 294.36 135.17C294.666 135.397 295.076 135.573 295.59 135.7L294.88 136.93C294.253 136.777 293.743 136.533 293.35 136.2C292.963 135.86 292.68 135.463 292.5 135.01C292.326 134.557 292.24 134.08 292.24 133.58V133.37ZM290.14 132.6H295.28V133.86H290.14V132.6ZM291.9 131.65H293.52V133.16H291.9V131.65ZM295.97 131.55H297.58V140.97H295.97V131.55ZM289.87 139.33L289.69 138.03C290.223 138.03 290.816 138.027 291.47 138.02C292.13 138.007 292.806 137.98 293.5 137.94C294.193 137.893 294.863 137.823 295.51 137.73L295.62 138.9C294.96 139.033 294.286 139.13 293.6 139.19C292.92 139.25 292.26 139.287 291.62 139.3C290.986 139.313 290.403 139.323 289.87 139.33ZM299.879 132.06H305.769V133.33H299.879V132.06ZM298.859 135.62H307.349V136.9H298.859V135.62ZM304.819 132.06H306.419V132.91C306.419 133.363 306.406 133.847 306.379 134.36C306.359 134.867 306.276 135.447 306.129 136.1L304.539 135.96C304.679 135.327 304.759 134.773 304.779 134.3C304.806 133.82 304.819 133.357 304.819 132.91V132.06ZM299.899 139.53H306.669V140.81H299.899V139.53ZM299.899 137.57H301.499V139.64H299.899V137.57ZM310.5 140L313.355 134.347V134.304H310.003V132.727H315.401V134.304L312.531 140H310.5ZM318.794 131.8C319.281 131.8 319.714 131.893 320.094 132.08C320.481 132.267 320.784 132.523 321.004 132.85C321.231 133.177 321.344 133.553 321.344 133.98C321.344 134.4 321.231 134.773 321.004 135.1C320.784 135.427 320.481 135.683 320.094 135.87C319.714 136.057 319.281 136.15 318.794 136.15C318.314 136.15 317.881 136.057 317.494 135.87C317.107 135.683 316.801 135.427 316.574 135.1C316.354 134.773 316.244 134.4 316.244 133.98C316.244 133.553 316.354 133.177 316.574 132.85C316.801 132.523 317.107 132.267 317.494 132.08C317.881 131.893 318.314 131.8 318.794 131.8ZM318.794 133.1C318.607 133.1 318.437 133.133 318.284 133.2C318.137 133.26 318.021 133.357 317.934 133.49C317.847 133.617 317.804 133.78 317.804 133.98C317.804 134.173 317.847 134.337 317.934 134.47C318.021 134.603 318.137 134.703 318.284 134.77C318.437 134.83 318.607 134.86 318.794 134.86C318.987 134.86 319.157 134.83 319.304 134.77C319.451 134.703 319.567 134.603 319.654 134.47C319.741 134.337 319.784 134.173 319.784 133.98C319.784 133.78 319.741 133.617 319.654 133.49C319.567 133.357 319.451 133.26 319.304 133.2C319.157 133.133 318.987 133.1 318.794 133.1ZM322.384 131.57H324.004V136.2H322.384V131.57ZM317.644 136.54H324.004V139.27H319.244V140.26H317.654V138.12H322.404V137.77H317.644V136.54ZM317.654 139.62H324.194V140.86H317.654V139.62Z" fill="#7B8DAA"/>
<g clip-path="url(#clip0_110_80)">
<rect x="42" y="163.5" width="287.77" height="123" rx="18" fill="url(#paint0_linear_110_80)"/>
<g opacity="0.86">
</g>
<rect x="79.4072" y="236.165" width="11.008" height="11" rx="5.5" fill="#246BFE"/>
<g filter="url(#filter0_d_110_80)">
<rect x="79.4072" y="236.165" width="11.008" height="11" rx="5.5" fill="white" fill-opacity="0.01" shape-rendering="crispEdges"/>
</g>
<rect x="142.714" y="216.469" width="11.008" height="11" rx="5.5" fill="#246BFE"/>
<g filter="url(#filter1_d_110_80)">
<rect x="142.714" y="216.469" width="11.008" height="11" rx="5.5" fill="white" fill-opacity="0.01" shape-rendering="crispEdges"/>
</g>
<rect x="208.901" y="225" width="11.008" height="11" rx="5.5" fill="#246BFE"/>
<g filter="url(#filter2_d_110_80)">
<rect x="208.901" y="225" width="11.008" height="11" rx="5.5" fill="white" fill-opacity="0.01" shape-rendering="crispEdges"/>
</g>
<rect x="272.218" y="196.796" width="11.008" height="11" rx="5.5" fill="#246BFE"/>
<g filter="url(#filter3_d_110_80)">
<rect x="272.218" y="196.796" width="11.008" height="11" rx="5.5" fill="white" fill-opacity="0.01" shape-rendering="crispEdges"/>
</g>
</g>
<rect x="365" y="103" width="280" height="210" rx="22" fill="white"/>
<rect x="365.5" y="103.5" width="279" height="209" rx="21.5" stroke="#246BFE" stroke-opacity="0.08"/>
<path d="M390.927 126.379H393.02V129.018H390.927V126.379ZM391.98 120.061C392.855 120.061 393.64 120.204 394.333 120.49C395.035 120.776 395.59 121.179 395.997 121.699C396.404 122.21 396.608 122.813 396.608 123.506C396.608 124.208 396.404 124.819 395.997 125.339C395.59 125.859 395.035 126.262 394.333 126.548C393.64 126.834 392.855 126.977 391.98 126.977C391.105 126.977 390.316 126.834 389.614 126.548C388.921 126.262 388.37 125.859 387.963 125.339C387.556 124.819 387.352 124.208 387.352 123.506C387.352 122.813 387.556 122.21 387.963 121.699C388.37 121.179 388.921 120.776 389.614 120.49C390.316 120.204 391.105 120.061 391.98 120.061ZM391.98 121.712C391.469 121.712 391.022 121.781 390.641 121.92C390.26 122.059 389.961 122.262 389.744 122.531C389.536 122.791 389.432 123.116 389.432 123.506C389.432 123.896 389.536 124.225 389.744 124.494C389.961 124.763 390.26 124.966 390.641 125.105C391.022 125.244 391.469 125.313 391.98 125.313C392.491 125.313 392.938 125.244 393.319 125.105C393.7 124.966 393.995 124.763 394.203 124.494C394.42 124.225 394.528 123.896 394.528 123.506C394.528 123.116 394.42 122.791 394.203 122.531C393.995 122.262 393.7 122.059 393.319 121.92C392.938 121.781 392.491 121.712 391.98 121.712ZM386.468 128.706H397.505V130.396H386.468V128.706ZM399.714 121.712H408.216V123.35H399.714V121.712ZM398.427 123.935H409.464V125.573H398.427V123.935ZM399.714 119.632H401.807V122.622H399.714V119.632ZM399.597 126.119H408.216V129.564H401.716V130.37H399.61V128.108H406.11V127.679H399.597V126.119ZM399.61 130.045H408.541V131.618H399.61V130.045ZM414.286 120.295C414.927 120.295 415.504 120.429 416.015 120.698C416.535 120.958 416.942 121.322 417.237 121.79C417.54 122.249 417.692 122.778 417.692 123.376C417.692 123.965 417.54 124.494 417.237 124.962C416.942 125.43 416.535 125.798 416.015 126.067C415.504 126.327 414.927 126.457 414.286 126.457C413.645 126.457 413.064 126.327 412.544 126.067C412.033 125.798 411.625 125.43 411.322 124.962C411.019 124.494 410.867 123.965 410.867 123.376C410.867 122.778 411.019 122.249 411.322 121.79C411.625 121.322 412.033 120.958 412.544 120.698C413.064 120.429 413.645 120.295 414.286 120.295ZM414.286 122.089C414.035 122.089 413.805 122.137 413.597 122.232C413.389 122.327 413.224 122.47 413.103 122.661C412.982 122.852 412.921 123.09 412.921 123.376C412.921 123.662 412.982 123.905 413.103 124.104C413.224 124.295 413.389 124.438 413.597 124.533C413.805 124.628 414.035 124.676 414.286 124.676C414.537 124.676 414.763 124.628 414.962 124.533C415.17 124.438 415.335 124.295 415.456 124.104C415.577 123.905 415.638 123.662 415.638 123.376C415.638 123.09 415.577 122.852 415.456 122.661C415.335 122.47 415.17 122.327 414.962 122.232C414.763 122.137 414.537 122.089 414.286 122.089ZM418.589 119.515H420.682V131.761H418.589V119.515ZM410.659 129.395L410.425 127.718C411.127 127.718 411.903 127.714 412.752 127.705C413.601 127.688 414.477 127.653 415.378 127.601C416.279 127.54 417.15 127.449 417.991 127.328L418.134 128.836C417.276 129.009 416.401 129.135 415.508 129.213C414.624 129.291 413.766 129.343 412.934 129.369C412.111 129.386 411.352 129.395 410.659 129.395ZM427.457 125.027H429.55V126.873H427.457V125.027ZM432.631 119.541H434.724V127.913H432.631V119.541ZM434.035 122.908H436.128V124.624H434.035V122.908ZM424.974 127.731L424.74 126.132C425.476 126.132 426.265 126.128 427.106 126.119C427.955 126.11 428.813 126.084 429.68 126.041C430.546 125.998 431.387 125.933 432.202 125.846L432.358 127.263C431.517 127.402 430.663 127.506 429.797 127.575C428.939 127.636 428.098 127.675 427.275 127.692C426.451 127.709 425.684 127.722 424.974 127.731ZM426.313 128.329H434.724V131.735H432.631V129.928H426.313V128.329ZM425.052 120.308H431.929V121.79H425.052V120.308ZM428.497 121.985C429.424 121.985 430.161 122.15 430.707 122.479C431.261 122.8 431.539 123.242 431.539 123.805C431.539 124.36 431.261 124.802 430.707 125.131C430.161 125.46 429.424 125.625 428.497 125.625C427.578 125.625 426.841 125.46 426.287 125.131C425.732 124.802 425.455 124.36 425.455 123.805C425.455 123.242 425.732 122.8 426.287 122.479C426.841 122.15 427.578 121.985 428.497 121.985ZM428.497 123.324C428.159 123.324 427.899 123.363 427.717 123.441C427.535 123.51 427.444 123.632 427.444 123.805C427.444 123.97 427.535 124.091 427.717 124.169C427.899 124.247 428.159 124.286 428.497 124.286C428.835 124.286 429.095 124.247 429.277 124.169C429.459 124.091 429.55 123.97 429.55 123.805C429.55 123.632 429.459 123.51 429.277 123.441C429.095 123.363 428.835 123.324 428.497 123.324ZM427.457 119.437H429.55V120.971H427.457V119.437ZM444.993 119.541H447.099V128.225H444.993V119.541ZM438.818 129.889H447.372V131.553H438.818V129.889ZM438.818 127.367H440.911V130.604H438.818V127.367ZM440.404 120.269C441.036 120.269 441.608 120.403 442.12 120.672C442.631 120.941 443.038 121.313 443.342 121.79C443.645 122.258 443.797 122.8 443.797 123.415C443.797 124.013 443.645 124.55 443.342 125.027C443.038 125.504 442.631 125.881 442.12 126.158C441.608 126.427 441.036 126.561 440.404 126.561C439.771 126.561 439.199 126.427 438.688 126.158C438.176 125.881 437.769 125.504 437.466 125.027C437.162 124.55 437.011 124.013 437.011 123.415C437.011 122.8 437.162 122.258 437.466 121.79C437.769 121.313 438.176 120.941 438.688 120.672C439.199 120.403 439.771 120.269 440.404 120.269ZM440.404 122.076C440.152 122.076 439.923 122.128 439.715 122.232C439.515 122.327 439.355 122.475 439.234 122.674C439.121 122.865 439.065 123.112 439.065 123.415C439.065 123.71 439.121 123.957 439.234 124.156C439.355 124.347 439.515 124.494 439.715 124.598C439.923 124.693 440.152 124.741 440.404 124.741C440.655 124.741 440.88 124.693 441.08 124.598C441.288 124.494 441.448 124.347 441.561 124.156C441.682 123.957 441.743 123.71 441.743 123.415C441.743 123.112 441.682 122.865 441.561 122.674C441.448 122.475 441.288 122.327 441.08 122.232C440.88 122.128 440.655 122.076 440.404 122.076ZM459.009 119.541H461.102V127.198H459.009V119.541ZM460.53 122.492H462.623V124.195H460.53V122.492ZM457.072 127.341C457.921 127.341 458.658 127.432 459.282 127.614C459.906 127.787 460.387 128.039 460.725 128.368C461.063 128.697 461.232 129.092 461.232 129.551C461.232 130.01 461.063 130.405 460.725 130.734C460.387 131.063 459.906 131.315 459.282 131.488C458.658 131.661 457.921 131.748 457.072 131.748C456.222 131.748 455.486 131.661 454.862 131.488C454.238 131.315 453.752 131.063 453.406 130.734C453.068 130.405 452.899 130.01 452.899 129.551C452.899 129.092 453.068 128.697 453.406 128.368C453.752 128.039 454.238 127.787 454.862 127.614C455.486 127.432 456.222 127.341 457.072 127.341ZM457.072 128.914C456.37 128.914 455.845 128.962 455.499 129.057C455.161 129.152 454.992 129.317 454.992 129.551C454.992 129.785 455.161 129.954 455.499 130.058C455.845 130.153 456.37 130.201 457.072 130.201C457.774 130.201 458.294 130.153 458.632 130.058C458.978 129.954 459.152 129.785 459.152 129.551C459.152 129.317 458.978 129.152 458.632 129.057C458.294 128.962 457.774 128.914 457.072 128.914ZM451.417 120.568H458.58V122.193H451.417V120.568ZM455.005 122.479C455.603 122.479 456.127 122.574 456.578 122.765C457.037 122.947 457.397 123.207 457.657 123.545C457.917 123.874 458.047 124.256 458.047 124.689C458.047 125.122 457.917 125.508 457.657 125.846C457.397 126.175 457.037 126.431 456.578 126.613C456.127 126.795 455.603 126.886 455.005 126.886C454.407 126.886 453.878 126.795 453.419 126.613C452.968 126.431 452.613 126.175 452.353 125.846C452.093 125.508 451.963 125.122 451.963 124.689C451.963 124.256 452.093 123.874 452.353 123.545C452.613 123.207 452.968 122.947 453.419 122.765C453.878 122.574 454.407 122.479 455.005 122.479ZM455.005 123.987C454.701 123.987 454.454 124.043 454.264 124.156C454.073 124.26 453.978 124.438 453.978 124.689C453.978 124.932 454.073 125.109 454.264 125.222C454.454 125.326 454.701 125.378 455.005 125.378C455.308 125.378 455.555 125.326 455.746 125.222C455.936 125.109 456.032 124.932 456.032 124.689C456.032 124.438 455.936 124.26 455.746 124.156C455.555 124.043 455.308 123.987 455.005 123.987ZM453.952 119.463H456.045V121.426H453.952V119.463ZM464.715 119.996H473.048V124.403H464.715V119.996ZM470.981 121.621H466.769V122.778H470.981V121.621ZM463.389 125.352H474.426V126.99H463.389V125.352ZM467.835 124.052H469.928V125.768H467.835V124.052ZM464.611 127.666H473.113V131.735H471.02V129.304H464.611V127.666Z" fill="#071F49"/>
<path d="M584.162 129V121.727H585.7V124.728H588.821V121.727H590.356V129H588.821V125.996H585.7V129H584.162ZM591.623 129V121.727H594.493C595.042 121.727 595.511 121.826 595.899 122.022C596.29 122.216 596.587 122.492 596.79 122.849C596.996 123.205 597.099 123.622 597.099 124.103C597.099 124.586 596.995 125.001 596.787 125.349C596.578 125.695 596.276 125.96 595.881 126.145C595.488 126.33 595.012 126.422 594.454 126.422H592.532V125.186H594.205C594.499 125.186 594.742 125.146 594.937 125.065C595.131 124.985 595.275 124.864 595.37 124.703C595.467 124.542 595.515 124.342 595.515 124.103C595.515 123.862 595.467 123.658 595.37 123.492C595.275 123.326 595.129 123.201 594.933 123.116C594.739 123.028 594.494 122.984 594.198 122.984H593.161V129H591.623ZM595.551 125.69L597.358 129H595.661L593.892 125.69H595.551ZM600.223 122.995V121.727H606.196V122.995H603.97V129H602.45V122.995H600.223ZM607.965 129.103C607.617 129.103 607.307 129.043 607.034 128.922C606.762 128.799 606.547 128.618 606.388 128.379C606.232 128.137 606.154 127.836 606.154 127.477C606.154 127.174 606.209 126.919 606.321 126.713C606.432 126.507 606.583 126.341 606.775 126.216C606.967 126.09 607.185 125.996 607.429 125.932C607.675 125.868 607.933 125.823 608.203 125.797C608.52 125.764 608.776 125.733 608.97 125.705C609.164 125.674 609.305 125.629 609.392 125.57C609.48 125.51 609.524 125.423 609.524 125.307V125.286C609.524 125.061 609.453 124.887 609.311 124.763C609.171 124.64 608.972 124.579 608.714 124.579C608.442 124.579 608.225 124.639 608.064 124.76C607.903 124.878 607.797 125.027 607.745 125.207L606.345 125.094C606.416 124.762 606.556 124.476 606.764 124.234C606.973 123.991 607.242 123.804 607.571 123.673C607.902 123.541 608.286 123.474 608.721 123.474C609.024 123.474 609.314 123.51 609.591 123.581C609.871 123.652 610.118 123.762 610.333 123.911C610.551 124.06 610.723 124.252 610.848 124.487C610.974 124.719 611.036 124.997 611.036 125.321V129H609.602V128.244H609.559C609.472 128.414 609.354 128.564 609.208 128.695C609.061 128.822 608.884 128.923 608.679 128.996C608.473 129.067 608.235 129.103 607.965 129.103ZM608.398 128.059C608.621 128.059 608.817 128.015 608.987 127.928C609.158 127.838 609.292 127.717 609.389 127.565C609.486 127.414 609.534 127.242 609.534 127.05V126.472C609.487 126.502 609.422 126.531 609.339 126.557C609.259 126.58 609.167 126.603 609.066 126.624C608.964 126.643 608.862 126.661 608.76 126.678C608.658 126.692 608.566 126.705 608.483 126.717C608.306 126.743 608.151 126.784 608.018 126.841C607.885 126.898 607.782 126.975 607.709 127.072C607.636 127.166 607.599 127.285 607.599 127.427C607.599 127.633 607.674 127.79 607.823 127.899C607.974 128.006 608.166 128.059 608.398 128.059ZM616.748 125.101L615.364 125.186C615.34 125.068 615.289 124.961 615.211 124.866C615.133 124.769 615.03 124.692 614.902 124.636C614.776 124.576 614.626 124.547 614.451 124.547C614.217 124.547 614.019 124.597 613.858 124.696C613.697 124.793 613.616 124.923 613.616 125.087C613.616 125.217 613.668 125.327 613.773 125.417C613.877 125.507 614.056 125.579 614.309 125.634L615.296 125.832C615.826 125.941 616.222 126.116 616.482 126.358C616.743 126.599 616.873 126.917 616.873 127.31C616.873 127.667 616.767 127.981 616.557 128.251C616.348 128.521 616.062 128.731 615.697 128.883C615.335 129.032 614.917 129.107 614.444 129.107C613.722 129.107 613.146 128.956 612.718 128.656C612.292 128.353 612.042 127.941 611.969 127.42L613.457 127.342C613.502 127.562 613.61 127.73 613.783 127.846C613.956 127.96 614.177 128.016 614.447 128.016C614.713 128.016 614.926 127.965 615.087 127.864C615.25 127.759 615.333 127.626 615.335 127.462C615.333 127.325 615.275 127.213 615.161 127.125C615.047 127.035 614.872 126.966 614.636 126.919L613.691 126.731C613.158 126.624 612.762 126.44 612.501 126.177C612.243 125.914 612.114 125.579 612.114 125.172C612.114 124.821 612.209 124.52 612.398 124.266C612.59 124.013 612.859 123.818 613.204 123.68C613.552 123.543 613.96 123.474 614.426 123.474C615.115 123.474 615.657 123.62 616.052 123.911C616.45 124.202 616.682 124.599 616.748 125.101ZM619.196 127.43L619.2 125.616H619.42L621.167 123.545H622.903L620.556 126.287H620.198L619.196 127.43ZM617.825 129V121.727H619.338V129H617.825ZM621.234 129L619.629 126.624L620.638 125.555L623.006 129H621.234Z" fill="#7B8DAA"/>
<rect x="386" y="152.5" width="238.95" height="45" rx="14" fill="#F7FBFF"/>
<path d="M401.507 177.913H403.37V180.616H401.507V177.913ZM405.245 177.913H407.108V180.616H405.245V177.913ZM399.84 170.817H408.695V172.255H399.84V170.817ZM399.414 176.705H409.178V178.177H399.414V176.705ZM404.29 172.565C405.486 172.565 406.418 172.726 407.085 173.048C407.759 173.37 408.097 173.83 408.097 174.428C408.097 175.034 407.759 175.502 407.085 175.831C406.418 176.153 405.486 176.314 404.29 176.314C403.094 176.314 402.159 176.153 401.484 175.831C400.817 175.502 400.484 175.034 400.484 174.428C400.484 173.83 400.817 173.37 401.484 173.048C402.159 172.726 403.094 172.565 404.29 172.565ZM404.29 173.922C403.631 173.922 403.152 173.961 402.853 174.037C402.554 174.106 402.404 174.237 402.404 174.428C402.404 174.62 402.554 174.754 402.853 174.831C403.152 174.908 403.631 174.946 404.29 174.946C404.949 174.946 405.429 174.908 405.728 174.831C406.027 174.754 406.176 174.62 406.176 174.428C406.176 174.237 406.027 174.106 405.728 174.037C405.429 173.961 404.949 173.922 404.29 173.922ZM403.359 169.817H405.21V171.818H403.359V169.817ZM416.663 169.782H418.526V180.57H416.663V169.782ZM418.055 173.773H419.906V175.291H418.055V173.773ZM413.788 170.875H415.605C415.605 171.987 415.459 173.033 415.168 174.014C414.877 174.988 414.382 175.881 413.685 176.694C412.995 177.499 412.04 178.208 410.821 178.821L409.786 177.418C410.706 176.935 411.461 176.403 412.052 175.82C412.642 175.237 413.079 174.57 413.363 173.819C413.646 173.06 413.788 172.19 413.788 171.208V170.875ZM410.43 170.875H414.743V172.358H410.43V170.875ZM430.028 169.805H431.891V177.648H430.028V169.805ZM424.565 178.959H432.132V180.432H424.565V178.959ZM424.565 176.878H426.417V179.742H424.565V176.878ZM425.232 170.392H426.762V171.415C426.762 172.121 426.658 172.799 426.451 173.451C426.252 174.095 425.926 174.662 425.474 175.153C425.021 175.644 424.42 176.012 423.668 176.257L422.737 174.785C423.373 174.578 423.871 174.294 424.232 173.934C424.6 173.566 424.857 173.163 425.002 172.726C425.156 172.282 425.232 171.845 425.232 171.415V170.392ZM425.623 170.392H427.13V171.415C427.13 171.737 427.168 172.059 427.245 172.381C427.321 172.696 427.452 172.999 427.636 173.29C427.82 173.574 428.065 173.83 428.372 174.06C428.686 174.29 429.073 174.474 429.533 174.612L428.602 176.084C427.873 175.854 427.291 175.506 426.854 175.038C426.417 174.57 426.102 174.026 425.911 173.405C425.719 172.776 425.623 172.113 425.623 171.415V170.392ZM435.708 171.714H437.203V172.071C437.203 172.7 437.103 173.298 436.904 173.865C436.704 174.432 436.382 174.927 435.938 175.348C435.493 175.77 434.903 176.081 434.167 176.28L433.304 174.842C433.918 174.681 434.397 174.455 434.742 174.164C435.094 173.865 435.344 173.531 435.489 173.164C435.635 172.795 435.708 172.431 435.708 172.071V171.714ZM436.064 171.714H437.559V172.071C437.559 172.316 437.598 172.565 437.674 172.818C437.759 173.064 437.893 173.301 438.077 173.531C438.261 173.761 438.506 173.968 438.813 174.152C439.127 174.329 439.51 174.474 439.963 174.589L439.135 176.027C438.399 175.843 437.805 175.555 437.352 175.164C436.9 174.766 436.57 174.298 436.363 173.761C436.164 173.225 436.064 172.661 436.064 172.071V171.714ZM433.73 170.817H439.549V172.255H433.73V170.817ZM435.708 169.771H437.559V171.404H435.708V169.771ZM439.261 172.565H441.113V174.049H439.261V172.565ZM440.687 169.805H442.55V176.303H440.687V169.805ZM438.836 176.429C439.993 176.429 440.906 176.613 441.573 176.981C442.247 177.342 442.585 177.852 442.585 178.511C442.585 179.17 442.247 179.684 441.573 180.052C440.906 180.42 439.993 180.604 438.836 180.604C437.678 180.604 436.762 180.42 436.087 180.052C435.42 179.684 435.087 179.17 435.087 178.511C435.087 177.852 435.42 177.342 436.087 176.981C436.762 176.613 437.678 176.429 438.836 176.429ZM438.836 177.832C438.406 177.832 438.05 177.855 437.766 177.901C437.483 177.947 437.272 178.02 437.134 178.12C437.003 178.22 436.938 178.35 436.938 178.511C436.938 178.672 437.003 178.806 437.134 178.913C437.272 179.013 437.483 179.086 437.766 179.132C438.05 179.178 438.406 179.201 438.836 179.201C439.273 179.201 439.629 179.178 439.905 179.132C440.189 179.086 440.396 179.013 440.526 178.913C440.664 178.806 440.733 178.672 440.733 178.511C440.733 178.35 440.664 178.22 440.526 178.12C440.396 178.02 440.189 177.947 439.905 177.901C439.629 177.855 439.273 177.832 438.836 177.832Z" fill="#334E78"/>
<path d="M490.717 171.136V179.5H488.949V172.815H488.9L486.984 174.015V172.447L489.055 171.136H490.717ZM492.705 179.5V178.226L495.682 175.469C495.935 175.224 496.147 175.004 496.319 174.808C496.493 174.612 496.625 174.42 496.715 174.232C496.805 174.041 496.85 173.836 496.85 173.615C496.85 173.37 496.794 173.159 496.682 172.982C496.571 172.803 496.418 172.665 496.225 172.57C496.032 172.472 495.813 172.423 495.568 172.423C495.312 172.423 495.088 172.474 494.898 172.578C494.707 172.681 494.56 172.83 494.457 173.023C494.353 173.216 494.302 173.446 494.302 173.713H492.623C492.623 173.166 492.747 172.691 492.995 172.288C493.242 171.885 493.59 171.573 494.036 171.353C494.483 171.132 494.997 171.022 495.58 171.022C496.179 171.022 496.7 171.128 497.144 171.341C497.59 171.55 497.937 171.842 498.185 172.214C498.433 172.587 498.557 173.015 498.557 173.497C498.557 173.813 498.494 174.124 498.369 174.432C498.246 174.74 498.027 175.081 497.712 175.457C497.396 175.83 496.951 176.278 496.376 176.801L495.155 177.997V178.054H498.667V179.5H492.705ZM507.114 169.863H508.655V177.648H507.114V169.863ZM505.285 172.968H507.332V174.21H505.285V172.968ZM503.767 170.668H505.366C505.366 171.626 505.174 172.493 504.791 173.267C504.407 174.041 503.851 174.712 503.123 175.279C502.402 175.847 501.525 176.295 500.49 176.625L499.857 175.406C500.677 175.145 501.379 174.816 501.962 174.417C502.544 174.011 502.989 173.551 503.296 173.037C503.61 172.516 503.767 171.956 503.767 171.358V170.668ZM500.409 170.668H504.733V171.887H500.409V170.668ZM501.674 179.109H508.919V180.34H501.674V179.109ZM501.674 176.878H503.204V179.822H501.674V176.878Z" fill="#334E78"/>
<rect x="548.9" y="161.81" width="36.38" height="26.38" rx="13.19" fill="#EAF4FF"/>
<path d="M560.601 172.06H562.291C562.291 172.907 562.131 173.66 561.811 174.32C561.491 174.973 561.017 175.53 560.391 175.99C559.771 176.443 558.997 176.797 558.071 177.05L557.451 175.8C558.177 175.607 558.771 175.363 559.231 175.07C559.697 174.77 560.041 174.433 560.261 174.06C560.487 173.68 560.601 173.277 560.601 172.85V172.06ZM557.981 172.06H561.731V173.33H557.981V172.06ZM563.751 171.56H565.371V176.75H563.751V171.56ZM562.361 173.68H563.961V174.98H562.361V173.68ZM559.111 177.12H565.371V180.86H559.111V177.12ZM563.781 178.38H560.701V179.6H563.781V178.38ZM567.59 176.08H574.27V177.35H567.59V176.08ZM566.65 178.7H575.14V179.99H566.65V178.7ZM570.09 176.72H571.7V179.26H570.09V176.72ZM567.59 172.13H574.21V173.41H569.23V176.56H567.59V172.13ZM568.74 174.11H573.99V175.35H568.74V174.11Z" fill="#246BFE"/>
<rect x="386" y="202.5" width="238.95" height="45" rx="14" fill="#F7FBFF"/>
<path d="M400.587 220.369H407.361V221.829H400.587V220.369ZM399.414 224.463H409.178V225.935H399.414V224.463ZM406.268 220.369H408.108V221.346C408.108 221.868 408.093 222.424 408.062 223.014C408.039 223.597 407.943 224.264 407.775 225.015L405.946 224.854C406.107 224.126 406.199 223.489 406.222 222.945C406.253 222.393 406.268 221.86 406.268 221.346V220.369ZM400.61 228.959H408.396V230.432H400.61V228.959ZM400.61 226.705H402.45V229.086H400.61V226.705ZM410.304 226.717H411.097C411.595 226.717 412.048 226.713 412.454 226.705C412.86 226.698 413.251 226.682 413.627 226.659C414.01 226.636 414.401 226.598 414.8 226.545L414.95 228.028C414.543 228.089 414.141 228.135 413.742 228.166C413.351 228.197 412.941 228.216 412.512 228.223C412.082 228.231 411.611 228.235 411.097 228.235H410.304V226.717ZM410.304 220.852H414.72V222.312H412.063V227.338H410.304V220.852ZM411.569 223.658H414.49V225.072H411.569V223.658ZM417.549 219.794H419.308V230.581H417.549V219.794ZM416.479 223.888H418.112V225.371H416.479V223.888ZM415.249 219.932H416.974V230.133H415.249V219.932ZM428.751 222.301H430.603V223.796H428.751V222.301ZM430.108 219.805H431.971V226.199H430.108V219.805ZM428.257 226.383C429.031 226.383 429.698 226.468 430.258 226.636C430.817 226.805 431.247 227.047 431.546 227.361C431.852 227.675 432.006 228.055 432.006 228.499C432.006 229.174 431.668 229.696 430.994 230.064C430.327 230.432 429.414 230.616 428.257 230.616C427.099 230.616 426.183 230.432 425.508 230.064C424.841 229.696 424.508 229.174 424.508 228.499C424.508 228.055 424.657 227.675 424.956 227.361C425.263 227.047 425.696 226.805 426.256 226.636C426.823 226.468 427.49 226.383 428.257 226.383ZM428.257 227.775C427.827 227.775 427.471 227.802 427.187 227.855C426.911 227.901 426.704 227.978 426.566 228.085C426.428 228.185 426.359 228.323 426.359 228.499C426.359 228.668 426.428 228.806 426.566 228.913C426.704 229.021 426.911 229.101 427.187 229.155C427.471 229.201 427.827 229.224 428.257 229.224C428.686 229.224 429.039 229.201 429.315 229.155C429.598 229.101 429.809 229.021 429.947 228.913C430.085 228.806 430.154 228.668 430.154 228.499C430.154 228.323 430.085 228.185 429.947 228.085C429.809 227.978 429.598 227.901 429.315 227.855C429.039 227.802 428.686 227.775 428.257 227.775ZM425.209 220.875H426.716V221.45C426.716 222.148 426.616 222.818 426.417 223.462C426.217 224.106 425.895 224.674 425.451 225.164C425.006 225.655 424.416 226.019 423.68 226.257L422.748 224.796C423.216 224.643 423.607 224.444 423.921 224.198C424.243 223.953 424.496 223.681 424.68 223.382C424.872 223.075 425.006 222.757 425.083 222.427C425.167 222.098 425.209 221.772 425.209 221.45V220.875ZM425.612 220.875H427.095V221.45C427.095 221.849 427.164 222.251 427.302 222.657C427.448 223.056 427.693 223.42 428.038 223.75C428.383 224.08 428.851 224.344 429.441 224.543L428.544 225.992C427.831 225.762 427.26 225.417 426.831 224.957C426.401 224.497 426.091 223.965 425.899 223.359C425.708 222.746 425.612 222.109 425.612 221.45V220.875ZM423.231 220.38H429.05V221.841H423.231V220.38ZM439.33 222.301H441.182V223.796H439.33V222.301ZM440.687 219.805H442.55V226.199H440.687V219.805ZM438.836 226.383C439.61 226.383 440.277 226.468 440.837 226.636C441.396 226.805 441.826 227.047 442.125 227.361C442.431 227.675 442.585 228.055 442.585 228.499C442.585 229.174 442.247 229.696 441.573 230.064C440.906 230.432 439.993 230.616 438.836 230.616C437.678 230.616 436.762 230.432 436.087 230.064C435.42 229.696 435.087 229.174 435.087 228.499C435.087 228.055 435.236 227.675 435.535 227.361C435.842 227.047 436.275 226.805 436.835 226.636C437.402 226.468 438.069 226.383 438.836 226.383ZM438.836 227.775C438.406 227.775 438.05 227.802 437.766 227.855C437.49 227.901 437.283 227.978 437.145 228.085C437.007 228.185 436.938 228.323 436.938 228.499C436.938 228.668 437.007 228.806 437.145 228.913C437.283 229.021 437.49 229.101 437.766 229.155C438.05 229.201 438.406 229.224 438.836 229.224C439.265 229.224 439.618 229.201 439.894 229.155C440.177 229.101 440.388 229.021 440.526 228.913C440.664 228.806 440.733 228.668 440.733 228.499C440.733 228.323 440.664 228.185 440.526 228.085C440.388 227.978 440.177 227.901 439.894 227.855C439.618 227.802 439.265 227.775 438.836 227.775ZM435.788 220.875H437.295V221.45C437.295 222.148 437.195 222.818 436.996 223.462C436.796 224.106 436.474 224.674 436.03 225.164C435.585 225.655 434.995 226.019 434.259 226.257L433.327 224.796C433.795 224.643 434.186 224.444 434.5 224.198C434.822 223.953 435.075 223.681 435.259 223.382C435.451 223.075 435.585 222.757 435.662 222.427C435.746 222.098 435.788 221.772 435.788 221.45V220.875ZM436.191 220.875H437.674V221.45C437.674 221.849 437.743 222.251 437.881 222.657C438.027 223.056 438.272 223.42 438.617 223.75C438.962 224.08 439.43 224.344 440.02 224.543L439.123 225.992C438.41 225.762 437.839 225.417 437.41 224.957C436.98 224.497 436.67 223.965 436.478 223.359C436.287 222.746 436.191 222.109 436.191 221.45V220.875ZM433.81 220.38H439.629V221.841H433.81V220.38Z" fill="#334E78"/>
<path d="M491.409 229.5L494.876 222.639V222.582H490.837V221.136H496.706V222.602L493.235 229.5H491.409ZM505.083 219.863H506.624V227.648H505.083V219.863ZM503.254 222.968H505.301V224.21H503.254V222.968ZM501.736 220.668H503.335C503.335 221.626 503.143 222.493 502.76 223.267C502.376 224.041 501.821 224.712 501.092 225.279C500.372 225.847 499.494 226.295 498.459 226.625L497.826 225.406C498.647 225.145 499.348 224.816 499.931 224.417C500.513 224.011 500.958 223.551 501.265 223.037C501.579 222.516 501.736 221.956 501.736 221.358V220.668ZM498.378 220.668H502.702V221.887H498.378V220.668ZM499.643 229.109H506.888V230.34H499.643V229.109ZM499.643 226.878H501.173V229.822H499.643V226.878Z" fill="#334E78"/>
<rect x="550.51" y="211.81" width="36.38" height="26.38" rx="13.19" fill="#EAF4FF"/>
<path d="M561 225.79H562.61V227.21H561V225.79ZM564.98 221.57H566.59V228.01H564.98V221.57ZM566.06 224.16H567.67V225.48H566.06V224.16ZM559.09 227.87L558.91 226.64C559.477 226.64 560.084 226.637 560.73 226.63C561.384 226.623 562.044 226.603 562.71 226.57C563.377 226.537 564.024 226.487 564.65 226.42L564.77 227.51C564.124 227.617 563.467 227.697 562.8 227.75C562.14 227.797 561.494 227.827 560.86 227.84C560.227 227.853 559.637 227.863 559.09 227.87ZM560.12 228.33H566.59V230.95H564.98V229.56H560.12V228.33ZM559.15 222.16H564.44V223.3H559.15V222.16ZM561.8 223.45C562.514 223.45 563.08 223.577 563.5 223.83C563.927 224.077 564.14 224.417 564.14 224.85C564.14 225.277 563.927 225.617 563.5 225.87C563.08 226.123 562.514 226.25 561.8 226.25C561.094 226.25 560.527 226.123 560.1 225.87C559.674 225.617 559.46 225.277 559.46 224.85C559.46 224.417 559.674 224.077 560.1 223.83C560.527 223.577 561.094 223.45 561.8 223.45ZM561.8 224.48C561.54 224.48 561.34 224.51 561.2 224.57C561.06 224.623 560.99 224.717 560.99 224.85C560.99 224.977 561.06 225.07 561.2 225.13C561.34 225.19 561.54 225.22 561.8 225.22C562.06 225.22 562.26 225.19 562.4 225.13C562.54 225.07 562.61 224.977 562.61 224.85C562.61 224.717 562.54 224.623 562.4 224.57C562.26 224.51 562.06 224.48 561.8 224.48ZM561 221.49H562.61V222.67H561V221.49ZM574.489 221.57H576.109V228.25H574.489V221.57ZM569.739 229.53H576.319V230.81H569.739V229.53ZM569.739 227.59H571.349V230.08H569.739V227.59ZM570.959 222.13C571.446 222.13 571.886 222.233 572.279 222.44C572.673 222.647 572.986 222.933 573.219 223.3C573.453 223.66 573.569 224.077 573.569 224.55C573.569 225.01 573.453 225.423 573.219 225.79C572.986 226.157 572.673 226.447 572.279 226.66C571.886 226.867 571.446 226.97 570.959 226.97C570.473 226.97 570.033 226.867 569.639 226.66C569.246 226.447 568.933 226.157 568.699 225.79C568.466 225.423 568.349 225.01 568.349 224.55C568.349 224.077 568.466 223.66 568.699 223.3C568.933 222.933 569.246 222.647 569.639 222.44C570.033 222.233 570.473 222.13 570.959 222.13ZM570.959 223.52C570.766 223.52 570.589 223.56 570.429 223.64C570.276 223.713 570.153 223.827 570.059 223.98C569.973 224.127 569.929 224.317 569.929 224.55C569.929 224.777 569.973 224.967 570.059 225.12C570.153 225.267 570.276 225.38 570.429 225.46C570.589 225.533 570.766 225.57 570.959 225.57C571.153 225.57 571.326 225.533 571.479 225.46C571.639 225.38 571.763 225.267 571.849 225.12C571.943 224.967 571.989 224.777 571.989 224.55C571.989 224.317 571.943 224.127 571.849 223.98C571.763 223.827 571.639 223.713 571.479 223.64C571.326 223.56 571.153 223.52 570.959 223.52Z" fill="#246BFE"/>
<rect x="386" y="252.5" width="238.95" height="45" rx="14" fill="#F7FBFF"/>
<path d="M400.507 275.923H402.335V276.889H406.211V275.923H408.051V280.489H400.507V275.923ZM402.335 278.304V279.017H406.211V278.304H402.335ZM400.587 270.196H407.361V271.657H400.587V270.196ZM399.414 273.899H409.178V275.371H399.414V273.899ZM406.268 270.196H408.097V271.093C408.097 271.553 408.085 272.025 408.062 272.508C408.039 272.983 407.959 273.547 407.821 274.198L405.946 274.348C406.107 273.666 406.199 273.071 406.222 272.565C406.253 272.052 406.268 271.561 406.268 271.093V270.196ZM414.789 271.887H417.549V273.37H414.789V271.887ZM414.789 275.199H417.549V276.682H414.789V275.199ZM412.983 270.495C413.527 270.495 414.014 270.656 414.444 270.978C414.873 271.293 415.21 271.741 415.456 272.324C415.701 272.907 415.824 273.597 415.824 274.394C415.824 275.199 415.701 275.897 415.456 276.487C415.21 277.07 414.873 277.522 414.444 277.844C414.014 278.158 413.527 278.315 412.983 278.315C412.439 278.315 411.952 278.158 411.523 277.844C411.093 277.522 410.756 277.07 410.511 276.487C410.265 275.897 410.143 275.199 410.143 274.394C410.143 273.597 410.265 272.907 410.511 272.324C410.756 271.741 411.093 271.293 411.523 270.978C411.952 270.656 412.439 270.495 412.983 270.495ZM412.983 272.186C412.768 272.186 412.581 272.266 412.42 272.427C412.259 272.581 412.132 272.822 412.04 273.152C411.948 273.474 411.902 273.888 411.902 274.394C411.902 274.9 411.948 275.318 412.04 275.647C412.132 275.977 412.259 276.222 412.42 276.383C412.581 276.544 412.768 276.625 412.983 276.625C413.205 276.625 413.397 276.544 413.558 276.383C413.719 276.222 413.842 275.977 413.926 275.647C414.018 275.318 414.064 274.9 414.064 274.394C414.064 273.888 414.018 273.474 413.926 273.152C413.842 272.822 413.719 272.581 413.558 272.427C413.397 272.266 413.205 272.186 412.983 272.186ZM417.284 269.782H419.136V280.616H417.284V269.782ZM430.016 269.782H431.879V280.616H430.016V269.782ZM426.003 270.495C426.555 270.495 427.049 270.656 427.486 270.978C427.923 271.293 428.264 271.741 428.51 272.324C428.763 272.907 428.889 273.597 428.889 274.394C428.889 275.199 428.763 275.897 428.51 276.487C428.264 277.07 427.923 277.522 427.486 277.844C427.049 278.158 426.555 278.315 426.003 278.315C425.451 278.315 424.956 278.158 424.519 277.844C424.082 277.522 423.737 277.07 423.484 276.487C423.239 275.897 423.116 275.199 423.116 274.394C423.116 273.597 423.239 272.907 423.484 272.324C423.737 271.741 424.082 271.293 424.519 270.978C424.956 270.656 425.451 270.495 426.003 270.495ZM426.003 272.186C425.78 272.186 425.585 272.266 425.416 272.427C425.255 272.581 425.129 272.822 425.037 273.152C424.945 273.474 424.899 273.888 424.899 274.394C424.899 274.9 424.945 275.318 425.037 275.647C425.129 275.977 425.255 276.222 425.416 276.383C425.585 276.544 425.78 276.625 426.003 276.625C426.225 276.625 426.417 276.544 426.578 276.383C426.746 276.222 426.877 275.977 426.969 275.647C427.061 275.318 427.107 274.9 427.107 274.394C427.107 273.888 427.061 273.474 426.969 273.152C426.877 272.822 426.746 272.581 426.578 272.427C426.417 272.266 426.225 272.186 426.003 272.186ZM435.535 276.027H437.387V280.593H435.535V276.027ZM439.319 276.027H441.17V280.593H439.319V276.027ZM433.442 275.624H443.206V277.096H433.442V275.624ZM437.341 270.07H438.962V270.53C438.962 270.952 438.905 271.362 438.79 271.76C438.682 272.151 438.51 272.523 438.272 272.876C438.042 273.229 437.747 273.551 437.387 273.842C437.034 274.126 436.612 274.371 436.122 274.578C435.631 274.777 435.071 274.923 434.443 275.015L433.73 273.52C434.274 273.443 434.749 273.328 435.156 273.175C435.562 273.022 435.903 272.841 436.179 272.634C436.463 272.427 436.689 272.205 436.858 271.967C437.026 271.73 437.149 271.488 437.226 271.243C437.302 270.998 437.341 270.76 437.341 270.53V270.07ZM437.697 270.07H439.319V270.53C439.319 270.76 439.357 270.998 439.434 271.243C439.51 271.488 439.633 271.73 439.802 271.967C439.97 272.205 440.193 272.427 440.469 272.634C440.752 272.841 441.097 273.022 441.504 273.175C441.91 273.328 442.385 273.443 442.93 273.52L442.217 275.015C441.588 274.923 441.028 274.777 440.538 274.578C440.047 274.371 439.622 274.126 439.261 273.842C438.909 273.551 438.613 273.229 438.376 272.876C438.146 272.523 437.973 272.151 437.858 271.76C437.751 271.362 437.697 270.952 437.697 270.53V270.07Z" fill="#334E78"/>
<path d="M494.104 279.612C493.505 279.612 492.971 279.509 492.503 279.303C492.038 279.095 491.67 278.808 491.4 278.445C491.132 278.078 490.994 277.655 490.986 277.177H492.736C492.747 277.377 492.812 277.554 492.932 277.706C493.056 277.856 493.219 277.972 493.422 278.055C493.625 278.138 493.854 278.18 494.108 278.18C494.373 278.18 494.607 278.133 494.81 278.039C495.014 277.946 495.173 277.816 495.288 277.65C495.403 277.484 495.461 277.293 495.461 277.076C495.461 276.857 495.399 276.663 495.276 276.494C495.156 276.323 494.982 276.189 494.754 276.093C494.53 275.997 494.262 275.949 493.952 275.949H493.185V274.673H493.952C494.214 274.673 494.445 274.627 494.646 274.536C494.849 274.445 495.007 274.319 495.119 274.159C495.232 273.996 495.288 273.806 495.288 273.589C495.288 273.383 495.238 273.203 495.139 273.047C495.043 272.89 494.907 272.767 494.73 272.678C494.556 272.59 494.353 272.546 494.12 272.546C493.885 272.546 493.669 272.589 493.474 272.674C493.279 272.757 493.122 272.876 493.005 273.031C492.887 273.187 492.824 273.368 492.816 273.577H491.151C491.159 273.104 491.294 272.686 491.556 272.325C491.818 271.964 492.171 271.682 492.615 271.478C493.062 271.272 493.566 271.169 494.128 271.169C494.695 271.169 495.192 271.272 495.617 271.478C496.042 271.684 496.373 271.963 496.608 272.313C496.846 272.661 496.964 273.051 496.961 273.485C496.964 273.945 496.821 274.329 496.532 274.637C496.246 274.944 495.872 275.139 495.412 275.222V275.287C496.017 275.364 496.477 275.574 496.793 275.917C497.111 276.256 497.269 276.682 497.266 277.193C497.269 277.661 497.134 278.077 496.861 278.441C496.591 278.804 496.218 279.091 495.741 279.299C495.265 279.508 494.719 279.612 494.104 279.612ZM505.556 270.031H507.07V277.681H505.556V270.031ZM503.759 273.082H505.77V274.302H503.759V273.082ZM502.267 270.822H503.838C503.838 271.763 503.65 272.615 503.273 273.375C502.896 274.136 502.35 274.795 501.635 275.353C500.926 275.91 500.064 276.351 499.047 276.675L498.425 275.477C499.231 275.221 499.921 274.897 500.493 274.505C501.066 274.106 501.503 273.654 501.804 273.149C502.113 272.637 502.267 272.087 502.267 271.5V270.822ZM498.968 270.822H503.217V272.019H498.968V270.822ZM500.211 279.116H507.33V280.325H500.211V279.116ZM500.211 276.924H501.714V279.816H500.211V276.924Z" fill="#334E78"/>
<rect x="550.51" y="261.81" width="36.38" height="26.38" rx="13.19" fill="#EAF4FF"/>
<path d="M565.63 271.56H567.16V280.94H565.63V271.56ZM564.56 275.09H565.99V276.38H564.56V275.09ZM563.55 271.7H565.04V280.52H563.55V271.7ZM559.28 277.62H559.96C560.307 277.62 560.65 277.617 560.99 277.61C561.33 277.597 561.674 277.573 562.02 277.54C562.367 277.507 562.727 277.46 563.1 277.4L563.22 278.7C562.84 278.767 562.47 278.82 562.11 278.86C561.75 278.893 561.394 278.917 561.04 278.93C560.687 278.937 560.327 278.94 559.96 278.94H559.28V277.62ZM559.28 272.62H562.73V273.91H560.87V278.26H559.28V272.62ZM574.519 271.56H576.139V280.94H574.519V271.56ZM571.739 272.51H573.339C573.339 273.25 573.276 273.95 573.149 274.61C573.023 275.27 572.803 275.89 572.489 276.47C572.183 277.05 571.749 277.59 571.189 278.09C570.636 278.583 569.929 279.037 569.069 279.45L568.229 278.18C569.129 277.747 569.833 277.277 570.339 276.77C570.853 276.263 571.213 275.687 571.419 275.04C571.633 274.393 571.739 273.65 571.739 272.81V272.51ZM568.769 272.51H572.519V273.78H568.769V272.51Z" fill="#246BFE"/>
<defs>
<filter id="filter0_d_110_80" x="73.9072" y="230.665" width="22.0078" height="22" filterUnits="userSpaceOnUse" color-interpolation-filters="sRGB">
<feFlood flood-opacity="0" result="BackgroundImageFix"/>
<feColorMatrix in="SourceAlpha" type="matrix" values="0 0 0 0 0 0 0 0 0 0 0 0 0 0 0 0 0 0 127 0" result="hardAlpha"/>
<feMorphology radius="5.5" operator="dilate" in="SourceAlpha" result="effect1_dropShadow_110_80"/>
<feOffset/>
<feComposite in2="hardAlpha" operator="out"/>
<feColorMatrix type="matrix" values="0 0 0 0 0.141176 0 0 0 0 0.419608 0 0 0 0 0.996078 0 0 0 0.12 0"/>
<feBlend mode="normal" in2="BackgroundImageFix" result="effect1_dropShadow_110_80"/>
<feBlend mode="normal" in="SourceGraphic" in2="effect1_dropShadow_110_80" result="shape"/>
</filter>
<filter id="filter1_d_110_80" x="137.214" y="210.969" width="22.0078" height="22" filterUnits="userSpaceOnUse" color-interpolation-filters="sRGB">
<feFlood flood-opacity="0" result="BackgroundImageFix"/>
<feColorMatrix in="SourceAlpha" type="matrix" values="0 0 0 0 0 0 0 0 0 0 0 0 0 0 0 0 0 0 127 0" result="hardAlpha"/>
<feMorphology radius="5.5" operator="dilate" in="SourceAlpha" result="effect1_dropShadow_110_80"/>
<feOffset/>
<feComposite in2="hardAlpha" operator="out"/>
<feColorMatrix type="matrix" values="0 0 0 0 0.141176 0 0 0 0 0.419608 0 0 0 0 0.996078 0 0 0 0.12 0"/>
<feBlend mode="normal" in2="BackgroundImageFix" result="effect1_dropShadow_110_80"/>
<feBlend mode="normal" in="SourceGraphic" in2="effect1_dropShadow_110_80" result="shape"/>
</filter>
<filter id="filter2_d_110_80" x="203.401" y="219.5" width="22.0078" height="22" filterUnits="userSpaceOnUse" color-interpolation-filters="sRGB">
<feFlood flood-opacity="0" result="BackgroundImageFix"/>
<feColorMatrix in="SourceAlpha" type="matrix" values="0 0 0 0 0 0 0 0 0 0 0 0 0 0 0 0 0 0 127 0" result="hardAlpha"/>
<feMorphology radius="5.5" operator="dilate" in="SourceAlpha" result="effect1_dropShadow_110_80"/>
<feOffset/>
<feComposite in2="hardAlpha" operator="out"/>
<feColorMatrix type="matrix" values="0 0 0 0 0.141176 0 0 0 0 0.419608 0 0 0 0 0.996078 0 0 0 0.12 0"/>
<feBlend mode="normal" in2="BackgroundImageFix" result="effect1_dropShadow_110_80"/>
<feBlend mode="normal" in="SourceGraphic" in2="effect1_dropShadow_110_80" result="shape"/>
</filter>
<filter id="filter3_d_110_80" x="266.718" y="191.296" width="22.0078" height="22" filterUnits="userSpaceOnUse" color-interpolation-filters="sRGB">
<feFlood flood-opacity="0" result="BackgroundImageFix"/>
<feColorMatrix in="SourceAlpha" type="matrix" values="0 0 0 0 0 0 0 0 0 0 0 0 0 0 0 0 0 0 127 0" result="hardAlpha"/>
<feMorphology radius="5.5" operator="dilate" in="SourceAlpha" result="effect1_dropShadow_110_80"/>
<feOffset/>
<feComposite in2="hardAlpha" operator="out"/>
<feColorMatrix type="matrix" values="0 0 0 0 0.141176 0 0 0 0 0.419608 0 0 0 0 0.996078 0 0 0 0.12 0"/>
<feBlend mode="normal" in2="BackgroundImageFix" result="effect1_dropShadow_110_80"/>
<feBlend mode="normal" in="SourceGraphic" in2="effect1_dropShadow_110_80" result="shape"/>
</filter>
<linearGradient id="paint0_linear_110_80" x1="185.885" y1="163.5" x2="185.885" y2="286.5" gradientUnits="userSpaceOnUse">
<stop stop-color="#F7FBFF"/>
<stop offset="1" stop-color="#EEF6FF"/>
</linearGradient>
<clipPath id="clip0_110_80">
<rect x="42" y="163.5" width="287.77" height="123" rx="18" fill="white"/>
</clipPath>
</defs>
</svg>
